<svg width="40" height="40" fill="none" xmlns="http://www.w3.org/2000/svg"><path d="M39.891 17.415C38.84 9.735 33.577 3.38 26.304.995 24.152.291 22.339 0 20.018 0c-2.321 0-4.135.291-6.286.995C9.4 2.413 5.707 5.285 3.104 9.247c-1.09 1.671-2.17 4.262-2.63 6.337-.442 1.98-.593 4.647-.376 6.619.958 8.533 7.3 15.555 15.691 17.358 4.962 1.06 10.299.178 14.565-2.422 4.924-3.004 8.287-7.849 9.359-13.453.206-1.09.253-1.615.282-3.314.018-1.361-.01-2.328-.104-2.957zm-9.622-.432c-.235.45-.986 1.08-1.663 1.38-1.88.835-4.2.338-4.839-1.042-.827-1.784 1.334-3.755 3.956-3.586 1.315.075 2.415.723 2.706 1.577.15.441.075 1.202-.16 1.67zm.16 7.642c-.47 1.558-3.166 2.15-5.15 1.145-1.39-.704-2.02-2-1.512-3.098.639-1.38 2.96-1.878 4.84-1.042 1.484.667 2.18 1.802 1.822 2.995zM25.195 10.57c-.103.225-.394.62-.648.864-1.57 1.53-4.247 1.774-5.412.488-.818-.902-.602-2.225.535-3.24.912-.825 2.058-1.22 3.345-1.154 1.917.085 2.885 1.437 2.18 3.042zm-.084 20.879c-.696 1.117-2.688 1.37-4.388.563-1.09-.516-1.927-1.493-2.077-2.403-.131-.826.385-1.69 1.26-2.113.366-.178.6-.215 1.333-.215 1.062-.01 1.663.15 2.537.675 1.494.911 2.049 2.338 1.335 3.493zm-4.905-9.247c-.742 2.328-2.462 4.196-4.586 5.003-.516.198-.798.245-1.569.245-.864.009-.986-.02-1.56-.282-1.644-.78-2.621-2.685-2.912-5.68a16.936 16.936 0 01.15-4.14c.507-2.92 1.907-4.647 3.928-4.835 2.546-.234 5.506 2.094 6.492 5.098.282.854.33 1.286.301 2.62-.028 1.041-.075 1.454-.244 1.97z" fill="gray"/></svg>