<svg width="40" height="40" fill="none" xmlns="http://www.w3.org/2000/svg"><path d="M.109 22.585c1.052 7.68 6.314 14.035 13.587 16.42 2.152.704 3.965.995 6.286.995 2.321 0 4.134-.291 6.286-.995 4.332-1.418 8.025-4.29 10.628-8.252 1.09-1.671 2.17-4.262 2.63-6.337.442-1.98.592-4.647.376-6.619C38.944 9.264 32.602 2.242 24.21.44 19.25-.621 13.912.261 9.646 2.861 4.722 5.865 1.36 10.71.287 16.314c-.206 1.09-.253 1.615-.282 3.314-.018 1.361.01 2.328.104 2.957zm9.622.432c.235-.45.986-1.08 1.663-1.38 1.88-.835 4.2-.338 4.839 1.042.827 1.784-1.334 3.755-3.956 3.586-1.315-.075-2.415-.723-2.706-1.577-.15-.441-.075-1.201.16-1.67zm-.16-7.642c.47-1.558 3.167-2.15 5.15-1.145 1.39.704 2.02 2 1.512 3.098-.639 1.38-2.96 1.878-4.84 1.042-1.484-.667-2.18-1.802-1.822-2.995zm5.234 14.054c.103-.225.394-.62.648-.864 1.57-1.53 4.247-1.774 5.412-.488.818.901.602 2.225-.535 3.24-.912.825-2.058 1.22-3.345 1.154-1.917-.085-2.885-1.436-2.18-3.042zm.084-20.879c.696-1.117 2.688-1.37 4.388-.563 1.09.516 1.927 1.493 2.077 2.403.131.826-.385 1.69-1.26 2.113-.366.178-.6.216-1.333.216-1.062.009-1.663-.15-2.537-.676-1.494-.911-2.049-2.338-1.335-3.493zm4.905 9.247c.742-2.328 2.462-4.196 4.586-5.003.516-.197.798-.245 1.569-.245.864-.009.986.02 1.56.282 1.644.78 2.621 2.685 2.913 5.68a16.94 16.94 0 01-.15 4.14c-.508 2.92-1.908 4.647-3.928 4.835-2.547.235-5.507-2.094-6.493-5.098-.282-.854-.33-1.286-.301-2.62.028-1.041.075-1.454.244-1.97z" fill="gray"/></svg>