<svg width="100" height="101" fill="none" xmlns="http://www.w3.org/2000/svg"><path d="M48.69.438c-2.383.814-3.985 3.627-4.005 6.992-.039 7.597 7.62 10.015 10.1 3.18 1.251-3.443.274-7.623-2.207-9.436C51.523.41 49.765.07 48.69.438zM51.7 5.3c1.465 2.155.43 5.415-1.7 5.415-2.051 0-3.145-3.155-1.817-5.258.664-1.077 1.133-1.34 2.11-1.183.586.08.938.342 1.407 1.026zM3.248 11.005c-.39.157-1.153.815-1.68 1.445-1.583 1.92-1.993 4.548-1.114 7.098 1.66 4.81 6.76 4.679 8.323-.21.957-3.024-.02-6.52-2.227-7.939-.899-.578-2.345-.736-3.302-.394zm2.423 4.416c.722.999.762 2.155.078 3.049-.997 1.367-2.833.42-2.833-1.446 0-1.051.918-2.366 1.66-2.366.313 0 .743.316 1.095.763zm88.481-4.391c-1.407.527-2.735 2.314-3.126 4.18-.664 3.102.703 6.677 2.911 7.57 4.786 1.92 8.186-5.86 4.513-10.303-1.309-1.604-2.716-2.05-4.298-1.446zm2.383 4.417c.508.71.586.946.489 1.788-.235 1.84-1.798 2.55-2.774 1.235-.684-.894-.645-2.05.078-3.05.762-.998 1.445-.998 2.207.027zm-47.852 7.792c-.293.394-3.77 9.068-7.756 19.294-3.966 10.225-7.287 18.558-7.346 18.532-.058-.027-5.411-7.623-11.858-16.876-6.467-9.253-11.996-16.981-12.27-17.191-.449-.316-.605-.29-1.172.078-.39.237-.703.658-.781 1.078-.078.447 2.188 10.883 7.658 35.276 7.561 33.62 7.815 34.646 8.499 35.592.39.526.996 1.025 1.348 1.104.352.105 11.507.184 24.792.158 18.188 0 24.303-.079 24.811-.316 1.426-.683 1.192.263 9.495-36.669 5.47-24.315 7.717-34.698 7.639-35.145-.078-.42-.39-.841-.782-1.078-.566-.368-.722-.394-1.172-.078-.273.21-5.802 7.938-12.269 17.19-6.447 9.254-11.8 16.85-11.859 16.877-.058.026-3.36-8.307-7.345-18.532-3.966-10.226-7.463-18.9-7.756-19.294-.274-.421-.704-.736-.938-.736-.235 0-.664.315-.938.736zm8.264 24.288c7.678 19.61 7.62 19.478 8.753 18.9.254-.131 5.157-6.94 10.881-15.115 5.725-8.175 10.413-14.878 10.453-14.878.02 0-.743 3.47-1.68 7.676-.958 4.232-3.556 15.798-5.803 25.708l-2.345 10.44-1.7 7.566-2.285.132c-2.637.157-3.087.446-3.087 1.918 0 1.473.528 1.867 2.618 2.025l1.798.131-.47 2.155-.488 2.182H25.65l-.488-2.182-.469-2.155 20.514-.132c11.292-.078 20.67-.236 20.865-.341.762-.526.86-2.603.117-3.26-.137-.105-9.462-.27-21.066-.349l-21.387-.124-1.71-7.566-2.06-9.126c-2.052-9.174-4.67-20.766-5.784-25.734l-2.031-9.043 1.113 1.551c.626.842 5.334 7.57 10.472 14.905 5.138 7.36 9.553 13.485 9.807 13.616 1.133.578 1.075.71 8.753-18.9 3.966-10.146 7.267-18.453 7.326-18.453.058 0 3.36 8.307 7.326 18.453z" fill="#5A0057"/></svg>