<svg width="100" height="100" fill="none" xmlns="http://www.w3.org/2000/svg"><g clip-path="url(#clip0_10_27)" fill="#5A0057"><path d="M25.586 8.496C12.539 13.164 1.64 17.148 1.367 17.344.742 17.793 0 19.258 0 20.02c.02.859.645 2.128 1.309 2.597.312.235 5.546 2.188 11.601 4.356 6.055 2.148 11.25 4.023 11.543 4.12l.527.196.06 5.723.058 5.722.605.743c2.285 2.851 10.195 4.511 22.344 4.707 13.867.234 23.691-1.524 26.25-4.707l.605-.742.059-5.723.058-5.723 2.188-.781c1.211-.43 2.344-.84 2.54-.918.312-.137.331.058.331 2.227 0 2.773.293 3.593 1.504 4.335.645.41 1.055.47 2.89.528 3.223.117 4.454-.352 5.196-1.992.293-.665.371-1.29.371-3.73 0-2.56-.078-3.302-.41-4.571-.059-.195 1.113-.703 4.121-1.777 2.305-.84 4.492-1.72 4.844-1.954.722-.468 1.387-1.738 1.406-2.636 0-.762-.742-2.227-1.367-2.676C97.89 16.797 51.21.156 50.195.078c-.761-.078-4.023 1.035-24.61 8.418zm40.586.606c8.887 3.183 16.387 5.878 16.7 5.976l.526.196v8.3l-.488.215c-.273.137-.918.625-1.445 1.113-.781.743-1.328 1.016-3.672 1.836l-2.774.977-.058-2.676c-.059-2.46-.098-2.734-.527-3.34-2.168-3.047-11.328-4.922-24.141-4.96-13.184-.02-22.5 1.855-24.746 5-.41.566-.469.898-.547 3.28l-.098 2.676L14.2 23.867c-5.88-2.09-10.645-3.847-10.606-3.906.058-.059 45.683-16.426 46.366-16.621.02-.02 7.324 2.578 16.21 5.762zm25.703 9.18c2.246.8 4.2 1.523 4.356 1.62.195.098-1.329.723-4.473 1.836-2.617.938-4.805 1.7-4.883 1.7-.098 0-.156-1.582-.156-3.516v-3.516l.547.215c.293.117 2.363.86 4.609 1.66zm-37.383 1.835c7.735.371 14.297 1.543 16.563 2.93l.625.39v7.227c0 3.965-.059 7.227-.118 7.227-.078 0-.703-.215-1.425-.469-4.805-1.738-15.723-2.754-24.668-2.285-6.992.351-12.5 1.172-15.606 2.285-.722.254-1.347.469-1.425.469-.06 0-.118-3.262-.118-7.227v-7.226l.645-.391c2.148-1.328 8.965-2.578 15.957-2.91 4.687-.235 5.176-.235 9.57-.02zm31.64 7.031c.548.547.606.977.548 3.712l-.059 2.44-1.602.06-1.62.058v-2.871c0-2.695.019-2.91.43-3.34.546-.586 1.737-.625 2.304-.059zM55.177 38.477c5.41.293 9.746.898 12.988 1.797 1.387.37 3.32 1.21 3.32 1.445 0 .234-2.168 1.035-4.082 1.523-4.55 1.133-10.097 1.68-17.402 1.68-2.754 0-6.152-.098-7.54-.195-5.35-.43-10.624-1.446-12.968-2.48l-1.074-.47.469-.351c.918-.703 4.746-1.719 8.418-2.246 5.41-.782 11.836-1.035 17.87-.703zM3.906 52.031C1.27 53.535-.214 61.328.06 72.071c.136 5.038.351 7.246 1.015 10.195.567 2.558 1.406 4.375 2.442 5.312.937.84 1.035.84 4.55.313 8.926-1.328 17.95-2.149 28.79-2.637l2.792-.137-.273.664c-.156.352-.938 2.246-1.758 4.2-.84 2.011-1.484 3.847-1.484 4.199.02.937.644 2.187 1.367 2.695.84.606 2.383.742 3.398.313.41-.176.86-.313.996-.313.118 0 .43.45.704.996 1.054 2.266 3.75 2.813 5.39 1.094.41-.41 1.114-1.856 2.11-4.238.84-1.993 1.523-3.633 1.543-3.653.02-.039.742 1.621 1.582 3.672 1.27 3.067 1.68 3.848 2.285 4.375 1.699 1.543 4.12.996 5.175-1.172.294-.586.626-1.074.762-1.074.117 0 .567.137.977.313 1.016.43 2.558.293 3.398-.313.723-.508 1.348-1.758 1.368-2.676 0-.37-.723-2.382-1.68-4.668-.918-2.207-1.621-4.062-1.563-4.14.137-.137 7.422.273 12.032.664 4.511.37 11.015 1.113 15.195 1.738 4.394.625 4.375.645 5.312-.215 1.035-.937 1.875-2.754 2.442-5.312.664-2.95.879-5.157 1.015-10.196.254-9.863-.918-17.03-3.222-19.492-.762-.8-1.387-.937-3.36-.664-.918.117-3.28.43-5.273.703-14.102 1.895-30.781 2.735-46.035 2.285-12.246-.351-20.254-.976-30.723-2.382-5.644-.782-6.797-.86-7.422-.489zM95 55.84c.41 1.055 1.016 4.14 1.328 6.758.313 2.754.313 12.226-.02 14.844-.41 3.359-1.093 6.582-1.542 7.246-.098.156-1.055.097-3.36-.235-8.77-1.25-21.816-2.422-26.933-2.422-2.266 0-2.325-.058-1.778-1.582.586-1.718.742-4.707.313-6.386-.45-1.797-1.075-3.106-2.09-4.454l-.898-1.191-.137-2.227c-.137-2.343-.586-5.82-.918-7.09-.117-.41-.176-.761-.137-.8.04-.02 2.48-.156 5.43-.274 8.925-.39 19.082-1.308 26.855-2.46 1.719-.235 3.223-.45 3.34-.47.137-.019.371.333.547.743zm-78.496.683c7.031.782 11.797 1.133 21.406 1.602l2.461.117.43 2.168c.625 3.262.781 4.844.8 7.715 0 2.148-.058 2.715-.37 3.32-.86 1.739-1.094 2.813-1.094 5.215 0 1.953.078 2.559.468 3.672.235.742.41 1.367.391 1.387-.039.039-2.5.156-5.45.293-8.183.351-14.452.879-22.812 1.894-2.285.274-4.199.47-4.238.43-.02-.02.117-.723.313-1.523.703-2.696.976-5.625 1.093-11.036.137-6.835-.273-11.972-1.21-15.058-.157-.528-.294-1.016-.294-1.074 0-.059.82 0 1.817.136.976.137 3.828.469 6.289.742zM5.723 58.984c.8 3.946.976 6.465.859 12.442-.078 4.316-.176 5.918-.508 7.773-.37 2.188-.918 4.59-1.074 4.746-.098.098-.82-3.144-1.23-5.527-.489-2.852-.489-13.984 0-16.797.566-3.32 1.152-5.644 1.308-5.351.098.156.371 1.367.645 2.714zm49.629-.566c.195.195.918 4.336 1.035 5.879l.117 1.719-1.152-.43c-.938-.332-1.622-.41-3.594-.43-2.696-.02-4.18.332-5.899 1.426L45 67.13l-.234-2.559c-.137-1.406-.41-3.378-.606-4.355-.195-.996-.332-1.836-.293-1.856.078-.097 11.406-.02 11.485.059zM54.14 68.75c5.332 1.64 7.52 8.106 4.316 12.695-2.598 3.692-7.852 4.61-11.582 2.012-2.09-1.465-3.3-3.672-3.477-6.348-.351-5.742 5.196-10.078 10.743-8.359zm-7.87 18.242c.488.254 1.367.606 1.933.781.547.196 1.016.372 1.016.391 0 .176-3.36 8.047-3.496 8.184-.078.078-.391-.489-.723-1.23-.977-2.364-1.602-2.618-3.887-1.602-.761.332-1.386.527-1.425.449-.02-.078.644-1.797 1.503-3.828.84-2.051 1.68-4.043 1.856-4.453l.293-.742 1.035.8c.547.45 1.406 1.016 1.895 1.25zm15.742 2.754c.996 2.363 1.777 4.317 1.758 4.336-.02.04-.743-.234-1.622-.605-2.343-.957-2.812-.743-3.867 1.68-.293.722-.625 1.25-.703 1.171-.098-.097-1.328-2.969-3.418-7.969-.039-.136.332-.37.957-.566 1.406-.469 3.028-1.328 3.965-2.148.566-.489.82-.606.938-.43.097.137.996 2.168 1.992 4.531z"/></g><defs><clipPath id="clip0_10_27"><path fill="#fff" d="M0 0h100v100H0z"/></clipPath></defs></svg>