<svg width="100" height="100" fill="none" xmlns="http://www.w3.org/2000/svg"><g clip-path="url(#clip0_5_52)" stroke="#5A0057" stroke-width="3" stroke-miterlimit="10" stroke-linecap="round" stroke-linejoin="round"><path d="M24.414 89.353H5.078v9.085h19.336v-9.085zM100 98.438H1.562"/><path d="M19.14 47.565h-8.788v41.788h8.789V47.565z"/><path d="M14.746 47.565c7.281 0 13.184-6.1 13.184-13.626s-5.903-13.627-13.184-13.627S1.562 26.413 1.562 33.94c0 7.526 5.903 13.626 13.184 13.626z"/><path d="M12.11 40.298V27.58h3.515c1.942 0 3.516 1.627 3.516 3.634 0 2.007-1.574 3.633-3.516 3.633h-1.758m42.188 55.415c0 4.515-3.542 8.175-7.91 8.175-4.37 0-7.91-3.66-7.91-8.175 0-.956.158-1.874.45-2.726 1.086-3.175 4.016-5.45 7.46-5.45 4.368 0 7.91 3.66 7.91 8.176zm35.155 0c0 4.515-3.54 8.175-7.91 8.175-4.368 0-7.91-3.66-7.91-8.175 0-.956.16-1.874.45-2.726 1.087-3.175 4.017-5.45 7.46-5.45 4.37 0 7.91 3.66 7.91 8.176z"/><path d="M84.18 90.262c0 .501-.394.908-.88.908-.485 0-.878-.407-.878-.908 0-.107.017-.209.05-.303a.882.882 0 01.829-.606c.485 0 .879.407.879.909zm-35.157 0c0 .501-.393.908-.879.908-.485 0-.878-.407-.878-.908 0-.107.017-.209.05-.303a.882.882 0 01.828-.606c.486 0 .88.407.88.909zm-8.789-2.726h-8.789m43.946 0H56.054m43.946 0h-8.79m-56.25 0v-10.9c0-4.014 3.149-7.268 7.032-7.268h0v-5.791c0-5.833 4.575-10.561 10.218-10.561h15.655c4.701 0 9.092 2.429 11.7 6.472l6.373 9.88h0c5.824 0 10.546 4.88 10.546 10.9v7.268"/><path d="M66.602 60.283v9.085h8.789v0c0-5.017-3.935-9.085-8.79-9.085h0zm-7.032 9.085H49.023v-3.596c0-3.031 2.378-5.489 5.31-5.489h5.237v9.085zm7.032 7.267h3.515"/></g><defs><clipPath id="clip0_5_52"><path fill="#fff" d="M0 0h100v100H0z"/></clipPath></defs></svg>