<svg version="1.0" xmlns="http://www.w3.org/2000/svg" width="682.667" height="682.667" viewBox="0 0 512 512"><g fill="#5a0057"><path d="M278.4 2.1c-6.3 2.4-13.4 9.6-15.7 15.9-.9 2.5-10.9 34.2-22.2 70.5-11.3 36.3-21 67.4-21.6 69.2l-1 3.2-37.7.3-37.8.3-4.9 2.6c-2.9 1.4-6.1 4.2-7.7 6.5-1.5 2.1-5.9 12.8-9.7 23.7-3.8 10.9-7.4 20.4-8 21-.9.9-12 1.4-38.4 1.8-41.8.6-42.7.7-53.7 8.1-7.1 4.7-13.7 13-17.2 21.6C.5 252.4.5 253 .2 299.7L-.1 347l2.5 2.5c3.2 3.2 7 3.2 10.1 0l2.5-2.4v-48.2l16.1.3 16.1.3 2.9 3.3L53 306v117.2l-3.4 3.4-3.4 3.4H15v-53.1l-2.5-2.4c-3.1-3.2-6.9-3.2-10 0L0 376.9v47.3c0 51.6.2 53.8 5.8 64.2 3.5 6.5 11.3 14.3 17.8 17.8 11.4 6.1-.8 5.8 203.1 5.8 133 0 187.7-.3 191.5-1.1 13.5-2.9 26.1-12.9 32.1-25.6l3.2-6.8.5-105.5.5-105.5 2.7-3.8c1.5-2.1 3.1-5.2 3.7-7 .6-1.8 12.3-39.4 26.2-83.7 23.1-74.2 25.1-80.9 24.6-86.1-.8-9.4-6.3-18.1-14.1-22.1-5.1-2.6-47.4-15.8-50.8-15.8-3.1 0-6.8 4.1-6.8 7.4 0 4.9 2.2 6 26.6 13.7 17.4 5.4 24.4 8.1 26.5 10 5.7 5.4 6.2 3.4-18.1 81.2-12.3 39.1-23 73.4-23.8 76l-1.4 4.9-2.5-3.9c-1.4-2.1-3.9-5.2-5.5-6.9-2.2-2.4-5.7-10.4-13.4-31.5-5.8-15.5-11.4-29.5-12.4-30.9-2.6-3.7-7.8-6-13.5-6s-5.7 0-23.7 12.7c-8.1 5.6-15.1 10.3-15.5 10.3-.4 0-5.9-13.1-12.2-29-10.1-25.7-11.9-29.5-15.2-32.5-4.1-3.6-9.1-5.1-14.1-4.1-1.8.3-16.6 9.6-32.9 20.6l-29.8 20h-12.6c-6.9 0-12.5-.3-12.5-.7 0-2.7 43.5-139.2 44.8-140.7 2.3-2.4 6.6-4.6 9.4-4.6 1.2 0 29.6 8.5 63 19 33.4 10.4 61.8 19 63.1 19 1.2 0 3.3-.7 4.5-1.6 2.9-2 3.1-8.3.3-10.8C416.1 37.9 293.5 0 288 .1c-2.5 0-6.8.9-9.6 2zM326.5 136c1 1.6 31.5 79.1 31.5 80.1 0 .5-2.9.9-6.5.9-9.3 0-10-.9-17-22.1-6.6-19.8-8.2-23.3-12.2-27-5.5-5.1-8.9-6.2-22.7-6.8l-12.9-.6 18.9-12.7c10.4-7 19.2-12.7 19.6-12.7.4-.1.9.3 1.3.9zm-14.7 42.5c1.1 1.1 5 11 8.8 22 5.5 16 7.5 20.7 10.3 23.8 6.6 7.4 5.3 7.1 47.6 7.7 36 .5 38.2.6 42.6 2.6 6.7 3.1 11.4 7.8 14.9 14.6l3 6.1v218.2l-2.8 6c-3.2 6.7-8.3 11.7-15.1 14.9l-4.6 2.1h-379l-4.7-2.3c-6-3-12-9-15-15-2-4.1-2.3-6.5-2.6-19.5l-.4-14.7h16.4c15 0 16.7-.2 21.3-2.4 6-2.8 12.7-9.9 14.3-15.4 1.7-5.6 1.7-119.8 0-125.4-1.5-5-7.8-12.2-13.2-15.1-3.7-2-5.9-2.2-21.4-2.5l-17.2-.4V271c0-15.7 1.5-21.1 7.8-28.2 2.5-2.7 6.8-6.1 9.6-7.6l5.1-2.7 38-.5c37-.5 38.1-.6 42.2-2.7 6.6-3.6 9-7.8 15.9-28 7.6-22.2 7.9-23 11.3-24.2 1.6-.6 33.8-.9 83.8-.8 79.8.2 81.3.2 83.1 2.2zm99.8 19.5c4 10.7 7.2 19.5 7.1 19.5-.1 0-10.1-.2-22.1-.5l-21.9-.5-2.9-6.9c-1.5-3.8-2.8-7.4-2.8-8 .1-1.6 32.2-23.7 34-23.3.9.1 4.1 7.6 8.6 19.7z"/><path d="M184.5 197.7c-5.5 1.4-7.5 8.3-3.5 12.3 1.9 1.9 3.3 2 46.4 2h44.5l2-2.6c2.7-3.5 2.6-5.7-.3-9.1l-2.4-2.8-42.4-.1c-23.2-.1-43.2 0-44.3.3zm191.8 58.9c-2.3.9-6.5 3.5-9.1 5.9-15.4 13.8-12.1 38.9 6.2 48.2 19.7 10 42.6-4.1 42.6-26.3 0-11.8-5.7-21.1-16.4-26.6-5.4-2.8-17.3-3.4-23.3-1.2zm16.6 14.9c5.4 2.8 8.1 7.1 8.1 13 0 4.3-.5 6-2.6 8.5-9.4 11.1-25.9 5.7-25.9-8.5 0-10.8 11.1-17.9 20.4-13zM216.5 264c-25.7 2.7-50.9 16.3-67 36-21.9 26.8-28.9 62.1-18.8 94.5 15.6 49.6 66.6 79.6 117.3 69 37-7.8 67.1-36.4 77.2-73.5 2-7.4 2.3-10.7 2.2-26 0-16.1-.2-18.2-2.8-26.5-5.5-18.1-13.4-31.6-26-44.1-17.3-17.2-37.4-26.8-61.6-29.4-10.4-1.1-10.4-1.1-20.5 0zm20 15c22.2 2.6 43 13.8 57.1 30.9 6.2 7.4 14.5 23.5 17 32.6 2.5 9 3 29.4 1 38.9-6.7 32.5-31 58.1-63.5 66.8-10.9 2.9-30.6 2.9-41.6-.1-65.3-17.4-87.3-97.4-39.8-144.4 16-15.8 35-24.1 58.8-25.6 1.1 0 6 .4 11 .9z"/><path d="M214 303.5c-8.9 2-21.4 8.4-28.1 14.4-21.1 18.8-26.9 49.2-14.3 74.8 5.9 11.8 18.3 23.8 30 28.8 9.5 4.1 13.9 4.9 25.4 5 13.4 0 21.5-2.1 31.8-8.2 13-7.7 22.6-19.8 27.8-34.8 2.4-6.8 2.7-9.6 2.7-19 0-9.6-.4-12.1-2.9-19.5-6.7-19-21.5-33.7-40.4-40-8.5-2.8-23.1-3.5-32-1.5zm22.1 14.5c24.4 4.5 42 29.5 37.9 53.9-4.7 27.8-32.3 45.7-59.2 38.2-20.9-5.7-34.8-24-34.8-45.7 0-29.6 26.9-51.8 56.1-46.4zM383.3 74c-18 3.6-28.7 22.8-22.6 40.6 2.3 6.7 11 15.4 17.7 17.7 20.7 7.1 41.8-8.9 40.3-30.4-.2-4-1.3-8.5-2.6-11.1-5.8-12.1-20-19.3-32.8-16.8zM397 90.9c4.9 3.5 7.2 8.1 6.8 13.7-.7 8.7-6.8 14.4-15.5 14.4-13.3 0-19.3-17.3-9.1-26.7 4.7-4.3 12.7-5 17.8-1.4z"/></g></svg>