<svg width="102" height="102" fill="none" xmlns="http://www.w3.org/2000/svg"><mask id="path-1-outside-1_5_121" maskUnits="userSpaceOnUse" x="0" y="0" width="102" height="102" fill="#000"><path fill="#fff" d="M0 0h102v102H0z"/><path fill-rule="evenodd" clip-rule="evenodd" d="M47.37 1.2c-9.716.66-19.608 4.502-27.434 10.673-2.044 1.603-6.528 6.083-8.133 8.125C2.02 32.383-1.343 48.48 2.636 63.851c1.1 4.305 3.253 9.377 5.628 13.286 3.869 6.368 10.046 12.54 16.574 16.558 2.089 1.274 6.595 3.448 8.991 4.326 16.135 5.907 34.535 2.899 48.274-7.862 2-1.58 6.507-6.083 8.09-8.103 9.76-12.341 13.145-28.525 9.188-43.787-.835-3.25-1.714-5.622-3.341-8.96-2.528-5.27-5.584-9.575-9.65-13.637C80.168 9.435 72.386 4.956 63.922 2.738c-3.319-.879-5.825-1.296-9.518-1.56-3.341-.241-3.473-.241-7.035.022zm11.102 3.01c6.858 1.164 13.233 3.645 18.685 7.269 2.374 1.559 5.298 3.886 5.43 4.326.066.175-15.63 17.567-18.598 20.576l-.835.856-.77-1.076c-.945-1.273-3.055-4.94-2.989-5.138.044-.088 1.121-.988 2.396-2.02 1.275-1.033 2.396-2.043 2.484-2.24.572-1.494-.88-3.25-2.396-2.877-.308.088-1.495.9-2.66 1.845l-2.11 1.69-1.847-1.822c-1.011-1.01-1.846-1.867-1.846-1.933 0-.066.55-1.032 1.209-2.152.66-1.098 1.209-2.24 1.209-2.503 0-.769-.572-1.691-1.21-1.977-1.362-.636-2.088-.153-3.56 2.306-.682 1.142-1.297 2.108-1.407 2.152-.088.066-.572-.044-1.077-.241a23.907 23.907 0 00-2.375-.747l-1.472-.395v-2.416c0-2.24-.044-2.46-.506-2.964-.703-.725-1.407-.879-2.33-.505-1.033.439-1.21.856-1.363 3.403l-.154 2.218h-.791c-.44 0-1.671.198-2.77.418-1.077.22-1.979.395-2 .373 0 0-.374-.923-.836-2.042-.461-1.12-1.033-2.196-1.275-2.416-.66-.593-2.022-.505-2.726.176-.791.79-.747 1.669.22 4.04.747 1.801.77 1.999.44 2.196-.22.11-1.21.835-2.22 1.603l-1.847 1.384-1.649-1.428c-.901-.79-1.912-1.515-2.22-1.58-.77-.198-1.934.438-2.264 1.251-.44 1.054-.11 1.735 1.759 3.492l1.758 1.647-.725 1.207c-.396.66-.968 1.801-1.253 2.526-.286.724-.594 1.405-.66 1.493-.088.088-1.011-.044-2.066-.285-2.594-.593-3.54-.572-4.199.11-.417.395-.55.768-.55 1.427 0 1.317.638 1.844 2.77 2.305.946.198 2.045.44 2.396.528l.66.153.176 2.526c.11 1.383.198 2.788.22 3.14l.044.659-2.528.505c-2.089.417-2.616.593-3.012 1.054-.725.834-.681 1.954.132 2.767.791.768 1.143.79 4.264.175 1.407-.285 2.463-.395 2.573-.285.087.11.417.79.725 1.515.113.266.238.565.36.858.212.505.416.994.541 1.272l.352.835-2.616 1.317c-1.45.703-2.792 1.537-2.968 1.8-.571.791-.44 1.867.286 2.614.945.944 1.605.835 4.55-.703 1.407-.724 2.594-1.273 2.638-1.23.066.066.594.88 1.166 1.823l1.077 1.713-1.957 2.086c-1.78 1.889-1.956 2.152-1.956 2.943 0 1.098.945 2.13 1.978 2.13.594 0 1.033-.307 2.55-1.8 1.055-1.033 1.935-1.713 2.023-1.582 1.934 2.284 3.34 4.019 3.34 4.107 0 .175-15.365 16.93-15.607 17.019-.088.021-1.033-.857-2.088-1.977C9.78 76.478 5.56 67.804 4.02 57.944c-.484-3.03-.528-10.255-.088-13.285C6.021 29.924 14.726 17.12 27.608 9.787c5.584-3.184 11.98-5.227 18.663-5.973 2.748-.308 9.299-.088 12.2.395zm29.5 17.107c4.155 5.072 7.408 11.638 9.08 18.27 1.01 4.063 1.296 6.632 1.296 11.441 0 6.105-.681 10.211-2.638 15.833-3.517 10.102-10.771 19.017-20.092 24.705-14.948 9.113-34.425 9.091-49.24-.022-2.749-1.691-5.54-3.821-5.43-4.129.043-.153 14.42-15.898 31.94-35.025l31.853-34.74.967 1.031a108.48 108.48 0 012.264 2.636zm-42.074 1.8c3.143.923 6.133 2.767 8.287 5.117 1.21 1.34 1.67 2.064 3.957 6.105.572 1.032 1.517 2.547 2.11 3.36l1.1 1.493-.55.659c-.308.35-1.32 1.493-2.264 2.503l-1.693 1.867-.506-.593c-.989-1.186-3.78-5.468-4.88-7.51-.615-1.142-1.517-2.592-2-3.229-.901-1.207-3.144-2.81-4.836-3.491-1.275-.505-5.078-.703-6.507-.352-2.616.66-5.188 2.46-6.66 4.634-2.067 3.118-2.463 6.698-1.144 10.54 1.715 4.963 5.716 12.078 9.035 15.987l1.363 1.603-1.055 1.142a177.45 177.45 0 01-2.265 2.438l-1.209 1.273-.615-.724c-3.693-4.326-6.2-8.082-8.53-12.825-2.132-4.37-3.187-7.224-3.649-9.838-1.626-9.289 4.55-18.402 13.871-20.444 2.155-.483 6.485-.33 8.64.285zm-1.43 9.114c1.803.856 3.166 2.305 4.42 4.677 1.296 2.438 3.253 5.534 4.923 7.708l1.21 1.603-.88.922c-.483.505-3.077 3.338-5.781 6.303l-3.317 3.638-.02.022-.004.005-.002.002-2.043 2.24-.506.505-1.253-1.493c-3.649-4.414-8.045-12.65-8.925-16.822-.835-3.864 1.65-8.19 5.562-9.64 1.78-.659 4.902-.505 6.617.33zm21.258 10.057l-.748.9 1.297 1.186c.726.66 2.33 1.889 3.562 2.723 3.011 2.043 4.66 3.624 6.089 5.776 2.154 3.272 2.99 6.039 2.99 9.904 0 4.919-1.583 8.871-4.925 12.363-5.056 5.292-12.772 6.94-19.608 4.216-3.935-1.559-8.903-4.546-12.508-7.466l-1.869-1.537-.857.944c-.484.505-.813.988-.747 1.098.11.197 4.022 3.338 4.836 3.887l.505.33-1.34 1.756c-1.671 2.174-1.957 2.833-1.715 3.711.264.922.967 1.45 1.956 1.45 1.011 0 1.32-.264 3.078-2.636l.295-.396.255-.341.002-.002c.509-.682.882-1.182.899-1.215.066-.066 5.32 2.503 5.517 2.7.022.023-.285 1.099-.725 2.394-.814 2.57-.814 3.097.044 3.91.681.636 2.044.702 2.704.11.242-.22.791-1.472 1.23-2.79l.814-2.393.901.175c.506.088 2.133.154 3.605.154h2.682l.704 2.482c.835 2.876 1.275 3.447 2.66 3.447.703 0 .989-.132 1.407-.615.703-.812.681-1.58-.11-4.172l-.638-2.108 2.022-.988c1.1-.527 2.66-1.472 3.474-2.087l1.495-1.141 1.912 1.449c1.055.79 2.132 1.493 2.418 1.559 1.539.395 3.012-1.581 2.264-2.987-.132-.241-1.01-1.032-1.978-1.756-.967-.747-1.759-1.384-1.759-1.428 0-.044.396-.702.88-1.47a22.715 22.715 0 001.56-3.185c.484-1.208.836-1.823 1.056-1.823.197 0 1.099.198 2 .44 2.33.614 2.968.57 3.759-.198.681-.681.791-1.406.396-2.284-.33-.725-.792-.944-3.496-1.647l-2.308-.593-.132-2.416c-.088-1.339-.22-2.722-.307-3.096a3.603 3.603 0 00-.051-.196c-.036-.127-.063-.222-.042-.306.064-.252.566-.394 2.584-.964l.005-.001c.305-.086.644-.182 1.02-.29 2.09-.593 2.77-2.283 1.452-3.623-.814-.812-1.253-.812-4.133.044-1.275.351-2.33.637-2.352.593-.022-.044-.506-.813-1.077-1.713a23.942 23.942 0 00-1.935-2.723c-.505-.57-.835-1.12-.725-1.208.11-.11 1.099-.79 2.22-1.515 1.1-.747 2.176-1.581 2.352-1.845.858-1.207.066-2.942-1.407-3.162-.703-.11-1.077.066-3.803 1.91l-3.011 2.043-1.473-1.032c-.835-.55-2.044-1.515-2.748-2.108-.681-.615-1.319-1.12-1.429-1.12-.088 0-.527.417-.945.922zm-6.903 7.884c-.087-.132.22-.615.66-1.12.44-.483.835-.879.901-.879.066 0 .726.527 1.451 1.186 1.297 1.098 3.341 2.635 6.177 4.634 1.495 1.032 3.232 3.25 3.847 4.897 1.737 4.501.594 9.289-2.968 12.539-2.703 2.46-6.748 3.47-10.31 2.547-1.714-.461-5.605-2.372-8.243-4.084-2.616-1.691-5.715-4.085-5.715-4.436 0-.132.351-.615.791-1.055l.791-.812 1.363 1.098c3.166 2.57 8.332 5.622 11.123 6.544 3.056 1.032 6.683.132 8.86-2.152 2.593-2.789 3.209-6.522 1.582-9.86-.747-1.493-1.868-2.613-4.264-4.216-1.89-1.274-5.76-4.37-6.046-4.831zm-4 6.126c-2.704.637-4.045 3.602-2.748 6.105.505 1.01 1.407 1.67 2.682 2.02.571.154.879.418 1.055.857.681 1.603 3.011 2.965 5.078 2.943 1.517-.022 2.726-.506 3.803-1.56 1.319-1.273 1.78-2.305 1.78-4.106 0-1.34-.088-1.713-.66-2.745-1.252-2.196-3.626-3.294-6.088-2.833-1.034.176-1.297.154-1.935-.22-.901-.505-2.044-.68-2.967-.46zm2.528 3.207c.55.614.747.614 2.396 0 1.253-.462 2.506-.154 3.473.856 2 2.13.462 5.468-2.506 5.424-1.473-.022-2.638-.966-3.1-2.503-.307-.989-.417-1.076-1.714-1.164-1.253-.088-1.913-.681-1.913-1.735 0-1.845 1.979-2.35 3.364-.878zM35.94 37.5c.637-1.296 1.23-1.889 2.44-2.504 1.297-.636 3.319-.592 4.704.11 1.253.637 2.308 1.91 2.66 3.272.681 2.482-.792 5.358-3.21 6.28-.923.352-2.945.33-3.847-.043-2.813-1.186-4.066-4.48-2.747-7.115zm7.276 3.382c.593-1.164.22-2.548-.924-3.448-.417-.33-.9-.461-1.648-.461-.923 0-1.21.11-1.913.746-.747.703-.813.857-.813 1.977 0 1.032.088 1.296.638 1.866 1.472 1.538 3.67 1.208 4.66-.68z"/></mask><path fill-rule="evenodd" clip-rule="evenodd" d="M47.37 1.2c-9.716.66-19.608 4.502-27.434 10.673-2.044 1.603-6.528 6.083-8.133 8.125C2.02 32.383-1.343 48.48 2.636 63.851c1.1 4.305 3.253 9.377 5.628 13.286 3.869 6.368 10.046 12.54 16.574 16.558 2.089 1.274 6.595 3.448 8.991 4.326 16.135 5.907 34.535 2.899 48.274-7.862 2-1.58 6.507-6.083 8.09-8.103 9.76-12.341 13.145-28.525 9.188-43.787-.835-3.25-1.714-5.622-3.341-8.96-2.528-5.27-5.584-9.575-9.65-13.637C80.168 9.435 72.386 4.956 63.922 2.738c-3.319-.879-5.825-1.296-9.518-1.56-3.341-.241-3.473-.241-7.035.022zm11.102 3.01c6.858 1.164 13.233 3.645 18.685 7.269 2.374 1.559 5.298 3.886 5.43 4.326.066.175-15.63 17.567-18.598 20.576l-.835.856-.77-1.076c-.945-1.273-3.055-4.94-2.989-5.138.044-.088 1.121-.988 2.396-2.02 1.275-1.033 2.396-2.043 2.484-2.24.572-1.494-.88-3.25-2.396-2.877-.308.088-1.495.9-2.66 1.845l-2.11 1.69-1.847-1.822c-1.011-1.01-1.846-1.867-1.846-1.933 0-.066.55-1.032 1.209-2.152.66-1.098 1.209-2.24 1.209-2.503 0-.769-.572-1.691-1.21-1.977-1.362-.636-2.088-.153-3.56 2.306-.682 1.142-1.297 2.108-1.407 2.152-.088.066-.572-.044-1.077-.241a23.907 23.907 0 00-2.375-.747l-1.472-.395v-2.416c0-2.24-.044-2.46-.506-2.964-.703-.725-1.407-.879-2.33-.505-1.033.439-1.21.856-1.363 3.403l-.154 2.218h-.791c-.44 0-1.671.198-2.77.418-1.077.22-1.979.395-2 .373 0 0-.374-.923-.836-2.042-.461-1.12-1.033-2.196-1.275-2.416-.66-.593-2.022-.505-2.726.176-.791.79-.747 1.669.22 4.04.747 1.801.77 1.999.44 2.196-.22.11-1.21.835-2.22 1.603l-1.847 1.384-1.649-1.428c-.901-.79-1.912-1.515-2.22-1.58-.77-.198-1.934.438-2.264 1.251-.44 1.054-.11 1.735 1.759 3.492l1.758 1.647-.725 1.207c-.396.66-.968 1.801-1.253 2.526-.286.724-.594 1.405-.66 1.493-.088.088-1.011-.044-2.066-.285-2.594-.593-3.54-.572-4.199.11-.417.395-.55.768-.55 1.427 0 1.317.638 1.844 2.77 2.305.946.198 2.045.44 2.396.528l.66.153.176 2.526c.11 1.383.198 2.788.22 3.14l.044.659-2.528.505c-2.089.417-2.616.593-3.012 1.054-.725.834-.681 1.954.132 2.767.791.768 1.143.79 4.264.175 1.407-.285 2.463-.395 2.573-.285.087.11.417.79.725 1.515.113.266.238.565.36.858.212.505.416.994.541 1.272l.352.835-2.616 1.317c-1.45.703-2.792 1.537-2.968 1.8-.571.791-.44 1.867.286 2.614.945.944 1.605.835 4.55-.703 1.407-.724 2.594-1.273 2.638-1.23.066.066.594.88 1.166 1.823l1.077 1.713-1.957 2.086c-1.78 1.889-1.956 2.152-1.956 2.943 0 1.098.945 2.13 1.978 2.13.594 0 1.033-.307 2.55-1.8 1.055-1.033 1.935-1.713 2.023-1.582 1.934 2.284 3.34 4.019 3.34 4.107 0 .175-15.365 16.93-15.607 17.019-.088.021-1.033-.857-2.088-1.977C9.78 76.478 5.56 67.804 4.02 57.944c-.484-3.03-.528-10.255-.088-13.285C6.021 29.924 14.726 17.12 27.608 9.787c5.584-3.184 11.98-5.227 18.663-5.973 2.748-.308 9.299-.088 12.2.395zm29.5 17.107c4.155 5.072 7.408 11.638 9.08 18.27 1.01 4.063 1.296 6.632 1.296 11.441 0 6.105-.681 10.211-2.638 15.833-3.517 10.102-10.771 19.017-20.092 24.705-14.948 9.113-34.425 9.091-49.24-.022-2.749-1.691-5.54-3.821-5.43-4.129.043-.153 14.42-15.898 31.94-35.025l31.853-34.74.967 1.031a108.48 108.48 0 012.264 2.636zm-42.074 1.8c3.143.923 6.133 2.767 8.287 5.117 1.21 1.34 1.67 2.064 3.957 6.105.572 1.032 1.517 2.547 2.11 3.36l1.1 1.493-.55.659c-.308.35-1.32 1.493-2.264 2.503l-1.693 1.867-.506-.593c-.989-1.186-3.78-5.468-4.88-7.51-.615-1.142-1.517-2.592-2-3.229-.901-1.207-3.144-2.81-4.836-3.491-1.275-.505-5.078-.703-6.507-.352-2.616.66-5.188 2.46-6.66 4.634-2.067 3.118-2.463 6.698-1.144 10.54 1.715 4.963 5.716 12.078 9.035 15.987l1.363 1.603-1.055 1.142a177.45 177.45 0 01-2.265 2.438l-1.209 1.273-.615-.724c-3.693-4.326-6.2-8.082-8.53-12.825-2.132-4.37-3.187-7.224-3.649-9.838-1.626-9.289 4.55-18.402 13.871-20.444 2.155-.483 6.485-.33 8.64.285zm-1.43 9.114c1.803.856 3.166 2.305 4.42 4.677 1.296 2.438 3.253 5.534 4.923 7.708l1.21 1.603-.88.922c-.483.505-3.077 3.338-5.781 6.303l-3.317 3.638-.02.022-.004.005-.002.002-2.043 2.24-.506.505-1.253-1.493c-3.649-4.414-8.045-12.65-8.925-16.822-.835-3.864 1.65-8.19 5.562-9.64 1.78-.659 4.902-.505 6.617.33zm21.258 10.057l-.748.9 1.297 1.186c.726.66 2.33 1.889 3.562 2.723 3.011 2.043 4.66 3.624 6.089 5.776 2.154 3.272 2.99 6.039 2.99 9.904 0 4.919-1.583 8.871-4.925 12.363-5.056 5.292-12.772 6.94-19.608 4.216-3.935-1.559-8.903-4.546-12.508-7.466l-1.869-1.537-.857.944c-.484.505-.813.988-.747 1.098.11.197 4.022 3.338 4.836 3.887l.505.33-1.34 1.756c-1.671 2.174-1.957 2.833-1.715 3.711.264.922.967 1.45 1.956 1.45 1.011 0 1.32-.264 3.078-2.636l.295-.396.255-.341.002-.002c.509-.682.882-1.182.899-1.215.066-.066 5.32 2.503 5.517 2.7.022.023-.285 1.099-.725 2.394-.814 2.57-.814 3.097.044 3.91.681.636 2.044.702 2.704.11.242-.22.791-1.472 1.23-2.79l.814-2.393.901.175c.506.088 2.133.154 3.605.154h2.682l.704 2.482c.835 2.876 1.275 3.447 2.66 3.447.703 0 .989-.132 1.407-.615.703-.812.681-1.58-.11-4.172l-.638-2.108 2.022-.988c1.1-.527 2.66-1.472 3.474-2.087l1.495-1.141 1.912 1.449c1.055.79 2.132 1.493 2.418 1.559 1.539.395 3.012-1.581 2.264-2.987-.132-.241-1.01-1.032-1.978-1.756-.967-.747-1.759-1.384-1.759-1.428 0-.044.396-.702.88-1.47a22.715 22.715 0 001.56-3.185c.484-1.208.836-1.823 1.056-1.823.197 0 1.099.198 2 .44 2.33.614 2.968.57 3.759-.198.681-.681.791-1.406.396-2.284-.33-.725-.792-.944-3.496-1.647l-2.308-.593-.132-2.416c-.088-1.339-.22-2.722-.307-3.096a3.603 3.603 0 00-.051-.196c-.036-.127-.063-.222-.042-.306.064-.252.566-.394 2.584-.964l.005-.001c.305-.086.644-.182 1.02-.29 2.09-.593 2.77-2.283 1.452-3.623-.814-.812-1.253-.812-4.133.044-1.275.351-2.33.637-2.352.593-.022-.044-.506-.813-1.077-1.713a23.942 23.942 0 00-1.935-2.723c-.505-.57-.835-1.12-.725-1.208.11-.11 1.099-.79 2.22-1.515 1.1-.747 2.176-1.581 2.352-1.845.858-1.207.066-2.942-1.407-3.162-.703-.11-1.077.066-3.803 1.91l-3.011 2.043-1.473-1.032c-.835-.55-2.044-1.515-2.748-2.108-.681-.615-1.319-1.12-1.429-1.12-.088 0-.527.417-.945.922zm-6.903 7.884c-.087-.132.22-.615.66-1.12.44-.483.835-.879.901-.879.066 0 .726.527 1.451 1.186 1.297 1.098 3.341 2.635 6.177 4.634 1.495 1.032 3.232 3.25 3.847 4.897 1.737 4.501.594 9.289-2.968 12.539-2.703 2.46-6.748 3.47-10.31 2.547-1.714-.461-5.605-2.372-8.243-4.084-2.616-1.691-5.715-4.085-5.715-4.436 0-.132.351-.615.791-1.055l.791-.812 1.363 1.098c3.166 2.57 8.332 5.622 11.123 6.544 3.056 1.032 6.683.132 8.86-2.152 2.593-2.789 3.209-6.522 1.582-9.86-.747-1.493-1.868-2.613-4.264-4.216-1.89-1.274-5.76-4.37-6.046-4.831zm-4 6.126c-2.704.637-4.045 3.602-2.748 6.105.505 1.01 1.407 1.67 2.682 2.02.571.154.879.418 1.055.857.681 1.603 3.011 2.965 5.078 2.943 1.517-.022 2.726-.506 3.803-1.56 1.319-1.273 1.78-2.305 1.78-4.106 0-1.34-.088-1.713-.66-2.745-1.252-2.196-3.626-3.294-6.088-2.833-1.034.176-1.297.154-1.935-.22-.901-.505-2.044-.68-2.967-.46zm2.528 3.207c.55.614.747.614 2.396 0 1.253-.462 2.506-.154 3.473.856 2 2.13.462 5.468-2.506 5.424-1.473-.022-2.638-.966-3.1-2.503-.307-.989-.417-1.076-1.714-1.164-1.253-.088-1.913-.681-1.913-1.735 0-1.845 1.979-2.35 3.364-.878zM35.94 37.5c.637-1.296 1.23-1.889 2.44-2.504 1.297-.636 3.319-.592 4.704.11 1.253.637 2.308 1.91 2.66 3.272.681 2.482-.792 5.358-3.21 6.28-.923.352-2.945.33-3.847-.043-2.813-1.186-4.066-4.48-2.747-7.115zm7.276 3.382c.593-1.164.22-2.548-.924-3.448-.417-.33-.9-.461-1.648-.461-.923 0-1.21.11-1.913.746-.747.703-.813.857-.813 1.977 0 1.032.088 1.296.638 1.866 1.472 1.538 3.67 1.208 4.66-.68z" fill="#5A0057"/><path d="M19.936 11.873l.185.236h.001l-.186-.236zM47.37 1.2l.02.3h.003l-.023-.3zM11.803 19.998l.235.186-.235-.186zM2.636 63.851l.29-.074-.29.075zm5.628 13.286l-.257.156.257-.156zm16.574 16.558l-.157.255h.001l.156-.255zm8.991 4.326l-.103.281.103-.281zm48.274-7.862l.185.236h.001l-.186-.236zm8.09-8.103l-.236-.186v.001l.236.185zM99.38 38.27l-.29.074.29-.075zm-3.341-8.96l-.27.13v.001l.27-.131zm-9.65-13.637l-.213.212.212-.212zM63.922 2.738l-.076.29.076-.29zm-9.518-1.56l-.022.3.022-.3zm22.752 10.3l-.166.25h.001l.165-.25zm-18.685-7.27l.05-.295h-.001l-.05.296zm24.115 11.596l-.288.086.003.01.004.01.28-.106zM63.989 36.38l-.213-.21h-.001l.214.21zm-.835.856l-.244.175.208.291.25-.256-.214-.21zm-.77-1.076l.245-.174-.003-.005-.241.18zm-2.989-5.138l-.268-.134-.01.019-.007.02.285.095zm2.396-2.02l-.189-.234.19.233zm2.484-2.24l.274.122.003-.008.003-.007-.28-.107zm-2.396-2.877l-.072-.292-.01.003.082.289zm-2.66 1.845l.188.234.001-.002-.189-.232zm-2.11 1.69l-.211.214.19.187.208-.167-.187-.234zm-1.847-1.822l-.212.212.002.001.21-.213zm-.637-4.085l-.257-.154-.002.002.259.152zm0-4.48l-.127.272.004.002.123-.274zm-3.561 2.306l-.258-.154.258.154zm-1.407 2.152l-.112-.278-.037.014-.031.024.18.24zm-3.452-.988l-.077.29.005.001.072-.29zm-1.472-.395h-.3v.23l.222.06.078-.29zm-.506-5.38l.222-.203-.007-.006-.215.209zm-2.33-.505l-.113-.279-.005.002.118.277zm-1.363 3.403l.3.021v-.003l-.3-.018zm-.154 2.218v.3h.28l.02-.279-.3-.02zm-3.561.418l-.059-.295h-.001l.06.295zm-2 .373l-.279.112.023.057.043.043.212-.212zm-2.11-4.458l.2-.222v-.001l-.2.223zm-2.727.176l-.208-.216-.004.003.212.213zm.22 4.04l-.278.113.001.002.277-.115zm.44 2.196l.134.269.01-.006.01-.006-.154-.257zm-2.22 1.603l.18.24h.001l-.181-.24zm-1.847 1.384l-.196.227.182.158.194-.145-.18-.24zm-1.649-1.428l-.197.226v.001l.197-.227zm-2.22-1.58l-.075.29.012.003.063-.294zm-2.264 1.251l.277.116v-.003l-.277-.113zm1.759 3.492l-.206.218.206-.218zm1.758 1.647l.257.154.125-.208-.177-.165-.205.219zm-.725 1.207l-.258-.154.258.154zm-1.913 4.019l.212.212.015-.015.013-.017-.24-.18zm-2.066-.285l.067-.293-.067.292zm-4.199.11l.207.217.009-.009-.216-.209zm2.22 3.732l-.063.294h.002l.061-.294zm2.396.528l-.072.29.004.002.069-.292zm.66.153l.3-.02-.016-.222-.216-.05-.068.292zm.176 2.526l-.3.02v.003l.3-.023zm.22 3.14l-.3.018v.002l.3-.02zm.044.659l.058.294.259-.052-.018-.262-.3.02zm-2.528.505l-.06-.294.06.294zm-3.012 1.054l.226.197.002-.002-.228-.195zm.132 2.767l-.212.212.003.003.209-.215zm4.264.175l.058.295h.002l-.06-.295zm2.573-.285l.234-.188-.01-.013-.012-.011-.212.212zm.725 1.515l-.276.117.276-.117zm.36.858l.277-.115-.277.115zm.541 1.272l.277-.116-.003-.007-.274.123zm.352.835l.135.268.25-.127-.109-.258-.276.117zm-2.616 1.317l.13.27.005-.002-.135-.268zm-2.968 1.8l.244.177.006-.01-.25-.166zm.286 2.614l-.215.21.003.002.212-.212zm4.55-.703l-.137-.266h-.001l.139.266zm2.638-1.23l.212-.212-.212.213zm1.166 1.823l-.257.156.002.004.255-.16zm1.077 1.713l.218.205.159-.169-.123-.196-.254.16zm-1.957 2.086l.218.206h.001l-.219-.206zm2.572 3.272l-.21-.214.21.214zm2.023-1.58l-.25.166.01.014.01.013.23-.194zM18.683 85.678l.073.292.015-.004.015-.005-.103-.282zm-2.088-1.976l.218-.206-.218.206zM4.02 57.944l.296-.046-.296.046zM3.933 44.66l.297.043V44.7l-.297-.042zM27.608 9.787l.149.26-.149-.26zm18.663-5.973l.034.298-.034-.298zm50.78 35.772l.291-.072v-.001l-.29.073zm-9.079-18.27l.232-.19v-.002l-.232.192zM95.71 66.86l.284.099-.284-.099zM75.618 91.565l.156.256-.156-.256zm-49.24-.022l-.158.255.157-.255zm-5.43-4.129l.282.101.003-.009.003-.01-.288-.082zm31.94-35.025l-.221-.203.221.203zm31.853-34.74l.219-.206-.222-.236-.218.238.22.203zm.967 1.031l.224-.2-.005-.005-.219.205zm-31.523 9.553l.223-.201-.002-.002-.22.203zm-8.287-5.117l.084-.288h-.002l-.082.288zm12.244 11.222l.262-.146v-.002l-.262.148zm2.11 3.36l-.242.176v.001l.242-.178zm1.1 1.493l.23.192.15-.18-.139-.19-.242.178zm-.55.659l.226.197.004-.005-.23-.192zm-2.264 2.503l-.22-.205-.003.003.223.202zm-1.693 1.867l-.228.194.221.26.23-.253-.223-.201zm-.506-.593l-.23.192.002.002.228-.194zm-4.88-7.51l.264-.143-.264.142zm-2-3.229l-.24.18v.002l.24-.182zm-4.836-3.491l.112-.279h-.002l-.11.279zm-6.507-.352l-.072-.29h-.001l.073.29zm-6.66 4.634l-.25-.168v.002l.25.166zm-1.144 10.54l-.284.098.284-.097zm9.035 15.987l-.229.194.229-.194zm1.363 1.603l.22.204.18-.195-.172-.203-.228.194zm-1.055 1.142l-.22-.203-.004.003.224.2zM37.39 65.39l.218.206h.001l-.219-.206zm-1.209 1.273l-.228.195.216.254.23-.242-.218-.207zm-.615-.724l.228-.195-.228.195zm-8.53-12.825l-.269.132.27-.132zm-3.649-9.838l-.295.052.296-.052zm13.871-20.444l.065.293h.001l-.066-.293zm11.63 14.076l-.266.14.265-.14zm-4.42-4.677l-.13.27h.002l.129-.27zm9.343 12.385l.24-.18-.002-.003-.238.183zm1.21 1.603l.217.207.175-.184-.153-.204-.24.18zm-.88.922l.217.208-.217-.208zm-5.781 6.303l.221.202-.221-.202zm-3.317 3.638l.222.202-.222-.202zm-.02.022l-.222-.202-.001.002.223.2zm0 0l.222.202.002-.002-.224-.2zm-.004.005l-.222-.202.222.202zm-.002.002l.222.202-.222-.202zm-2.043 2.24l.212.212.008-.009-.22-.203zm-.506.505l-.23.193.21.25.232-.23-.212-.213zm-1.253-1.493l-.23.19v.002l.23-.192zM32.29 41.54l.294-.061v-.002l-.294.064zm5.562-9.64l-.104-.281.104.281zM64.98 43.187l-.231-.191-.183.22.211.193.203-.222zm.747-.9l.23.192h.001l-.231-.192zm.55 2.086l-.203.222.203-.222zm3.56 2.723l.169-.248-.168.248zm6.09 5.776l.25-.165v-.001l-.25.166zM73.99 75.139l-.216-.208.216.208zm-19.608 4.216l.11-.279-.11.28zM41.875 71.89l-.19.232h.001l.189-.232zm-1.869-1.537l.19-.232-.22-.182-.192.212.222.202zm-.857.944l.217.207.005-.005-.222-.202zm-.747 1.098l.262-.146-.005-.009-.257.155zm4.836 3.887l-.168.248.004.003.164-.251zm.505.33l.239.181.196-.257-.27-.176-.165.251zm-1.34 1.756l.237.183v-.001l-.238-.182zm-1.715 3.711l-.29.08.001.003.289-.083zm5.034-1.186l-.24-.179h-.001l.24.18zm.295-.396l-.24-.18.24.18zm.255-.341l-.24-.18.24.18zm.002-.002l.24.18-.24-.18zm.899-1.215l-.212-.212-.035.034-.022.044.269.134zm5.517 2.7l-.212.213.212-.212zm-.725 2.394l-.284-.096-.002.006.286.09zm.044 3.91l-.207.217.002.001.205-.219zm2.704.11l.2.222h.001l-.201-.223zm1.23-2.79l-.283-.096v.001l.284.095zm.814-2.393l.057-.295-.257-.05-.084.248.284.097zm.901.175l-.057.295h.006l.051-.295zm6.287.154l.289-.082-.062-.218h-.227v.3zm.704 2.482l-.289.081v.002l.289-.084zm4.067 2.832l-.227-.196.227.196zm-.11-4.172l-.287.087.287-.087zm-.638-2.108l-.132-.27-.229.112.074.245.287-.087zm2.022-.988l-.13-.27h-.001l.132.27zm3.474-2.087l.18.24.002-.001-.182-.239zm1.495-1.141l.18-.24-.181-.137-.181.138.182.239zm1.912 1.449l-.181.239.001.001.18-.24zm2.418 1.559l.075-.29-.007-.002-.068.292zm2.264-2.987l.265-.14-.001-.003-.264.143zm-1.978-1.756l-.183.237.003.003.18-.24zm-.88-2.899l.255.16v-.002l-.254-.158zm1.561-3.184l-.278-.112-.002.006.28.106zm3.056-1.384l-.078.29h.001l.077-.29zm3.759-.197l.209.215.003-.003-.212-.212zm.396-2.284l.273-.123v-.001l-.273.124zm-3.496-1.647l.076-.29-.076.29zm-2.308-.593l-.3.016.013.22.213.055.074-.29zm-.132-2.416l.3-.016v-.003l-.3.02zm-.307-3.096l-.293.065v.004l.293-.069zm-.051-.196l-.291.073.002.008.289-.08zm0 0l.291-.073-.003-.01-.288.083zm0 0l-.289.081v.001l.289-.082zm-.042-.306l-.29-.073.29.073zm2.584-.964l.082.289.005-.002-.087-.287zm0 0l-.072-.291-.014.004.086.287zm0 0l.073.291.01-.002-.082-.29zm.005-.001l-.082-.29v.001l.082.289zm1.02-.29l-.081-.288.082.288zm1.452-3.623l.214-.21-.002-.002-.212.212zm-4.133.044l.08.29.005-.002-.085-.288zm-2.352.593l-.268.134.268-.134zm-1.077-1.713l-.258.154.004.007.254-.161zm-1.935-2.723l.229-.195-.004-.004-.225.199zm-.725-1.208l.187.235.013-.01.012-.012-.212-.213zm2.22-1.515l.163.252.006-.004-.169-.248zm2.352-1.845l-.245-.173-.004.007.25.166zm-1.407-3.162l-.046.297h.002l.044-.297zm-3.803 1.91l-.168-.248.168.249zm-3.011 2.043l-.172.246.169.118.171-.116-.168-.248zm-1.473-1.032l.172-.246-.007-.005-.165.25zM68.1 42.485l-.201.223.008.006.193-.23zm-8.617 6.566l-.222-.202-.004.005.226.197zm-.66 1.12l.256-.158-.006-.009-.25.167zm3.012-.813l-.202.222.008.007.194-.229zm6.177 4.634l-.173.245.003.002.17-.247zm3.847 4.897l-.281.105.001.003.28-.108zm-2.968 12.539l.202.222-.202-.222zm-10.31 2.547l-.077.29h.002l.076-.29zm-8.243-4.084l.163-.252-.163.252zm-4.924-5.49l.212.212.003-.003-.215-.21zm.791-.813l.189-.234-.213-.17-.19.195.214.209zm1.363 1.098l.19-.233h-.001l-.189.233zm11.123 6.544l.096-.284h-.001l-.095.284zm8.86-2.152l.217.207.002-.003-.22-.204zm1.582-9.86l.27-.131-.002-.003-.268.134zm-4.264-4.216l-.168.249.168-.25zm-12.794 7.4l.268-.134-.002-.004-.266.138zm2.748-6.105l.068.292h.001l-.07-.292zm-.066 8.126l-.08.289h.002l.078-.29zm1.055.856l-.279.112.003.005.276-.117zm5.078 2.943l.003.3h.001l-.004-.3zm3.803-1.56l-.209-.215-.001.001.21.214zm1.12-6.851l.263-.145-.002-.004-.26.149zm-6.088-2.833l.05.296.005-.001-.055-.295zm-1.935-.22l.152-.258-.005-.003-.147.261zm1.957 2.745l-.104-.281h-.001l.105.282zm-2.396 0l.223-.2-.005-.005-.218.206zm5.869.857l.219-.205-.002-.002-.217.207zm-2.506 5.424l-.005.3.005-.3zm-3.1-2.503l.288-.087-.001-.003-.287.09zM55.9 62.117l-.021.299.02-.3zm-17.52-27.12l-.133-.27-.003.002.136.267zM35.94 37.5l.268.134v-.002l-.268-.132zm7.144-2.394l.136-.267-.136.267zm2.66 3.272l-.29.075v.005l.29-.08zm-3.21 6.28l.107.281-.107-.28zm-3.847-.043l-.116.276.002.001.114-.277zm3.605-7.181l-.185.236.185-.236zm.924 3.448l.266.139.001-.003-.267-.136zm-4.485-3.163l-.201-.222-.004.004.205.218zm-.175 3.843l.216-.207-.216.207zM20.122 12.11c7.78-6.135 17.614-9.955 27.269-10.61l-.04-.598c-9.779.663-19.728 4.529-27.6 10.736l.371.471zm-8.083 8.074c1.59-2.023 6.057-6.486 8.082-8.074l-.37-.472c-2.063 1.618-6.565 6.114-8.184 8.176l.472.37zM2.926 63.776c-3.955-15.281-.611-31.281 9.112-43.592l-.47-.372C1.725 32.272-1.658 48.465 2.345 63.927l.58-.15zM8.52 76.981c-2.36-3.884-4.502-8.93-5.593-13.204l-.582.149c1.107 4.334 3.273 9.434 5.662 13.367l.513-.312zM24.996 93.44c-6.49-3.994-12.632-10.131-16.476-16.458l-.513.312c3.895 6.41 10.106 12.614 16.674 16.657l.315-.51zm8.936 4.3c-2.377-.871-6.866-3.037-8.937-4.3l-.313.512c2.106 1.284 6.63 3.467 9.044 4.352l.206-.564zm47.986-7.816c-13.66 10.698-31.95 13.687-47.986 7.816l-.206.564c16.235 5.943 34.743 2.915 48.562-7.907l-.37-.473zm8.038-8.052c-1.567 2.001-6.057 6.486-8.04 8.053l.373.47c2.018-1.595 6.542-6.113 8.14-8.153l-.473-.37zm9.135-43.527c3.933 15.171.568 31.259-9.134 43.526l.47.372c9.82-12.415 13.225-28.696 9.245-44.049l-.581.15zm-3.32-8.904c1.618 3.321 2.49 5.674 3.32 8.903l.58-.15c-.84-3.27-1.727-5.661-3.361-9.015l-.54.262zm-9.594-13.556c4.043 4.039 7.079 8.315 9.592 13.555l.541-.26c-2.542-5.3-5.618-9.633-9.708-13.72l-.425.425zM63.847 3.028c8.412 2.204 16.146 6.657 22.33 12.856l.425-.424C80.344 9.186 72.515 4.68 63.999 2.447l-.152.58zm-9.463-1.55c3.675.262 6.162.676 9.463 1.55l.153-.58c-3.338-.884-5.863-1.304-9.574-1.569l-.042.599zm-6.991.022c3.547-.263 3.664-.263 6.99-.022l.044-.599C51.07.637 50.923.637 47.348.901l.045.599zm29.93 9.728C71.834 7.58 65.419 5.084 58.522 3.913l-.1.592c6.82 1.157 13.154 3.624 18.569 7.222l.332-.5zm5.55 4.49a.683.683 0 00-.098-.19 1.927 1.927 0 00-.139-.172 6.397 6.397 0 00-.416-.415 25.033 25.033 0 00-1.32-1.115 51.301 51.301 0 00-3.579-2.6l-.329.502a50.71 50.71 0 013.534 2.567c.519.414.965.79 1.287 1.087.162.15.288.275.376.374.044.049.075.088.096.117.023.033.02.036.014.017l.575-.173zM64.204 36.59c1.49-1.51 6.16-6.617 10.445-11.36a968.992 968.992 0 005.702-6.362 200.21 200.21 0 001.806-2.058c.214-.25.383-.45.498-.591.057-.07.103-.129.136-.173a.93.93 0 00.046-.07.395.395 0 00.046-.116.306.306 0 00-.015-.163l-.561.211a.296.296 0 01.014-.238l-.015.022a24.84 24.84 0 01-.604.726c-.427.497-1.046 1.201-1.8 2.052a967.451 967.451 0 01-5.698 6.357c-4.289 4.749-8.95 9.843-10.427 11.341l.427.422zm-.834.855l.835-.857-.43-.419-.835.857.43.419zm-1.228-1.111l.769 1.076.488-.35-.77-1.075-.487.349zm-3.03-5.408c-.027.08-.015.15-.012.172a.645.645 0 00.022.09c.017.052.042.114.07.178.057.131.141.302.244.5.206.397.496.918.816 1.47.638 1.102 1.41 2.35 1.893 3.002l.482-.358c-.462-.622-1.219-1.844-1.856-2.944a38.261 38.261 0 01-.802-1.446 8.289 8.289 0 01-.227-.464 1.345 1.345 0 01-.048-.12c-.004-.012-.003-.012-.002-.005l.002.03c0 .014 0 .046-.014.085l-.569-.19zm2.491-2.159a122.58 122.58 0 00-1.664 1.368 27.5 27.5 0 00-.529.454 5.265 5.265 0 00-.216.204c-.008.01-.043.046-.066.093l.536.269c-.018.036-.039.056-.026.042a4.696 4.696 0 01.17-.16c.125-.11.301-.26.517-.443.433-.363 1.02-.845 1.656-1.36l-.378-.467zm2.399-2.128c.009-.02.009-.012-.034.037a3.62 3.62 0 01-.15.162 13.8 13.8 0 01-.54.507c-.446.402-1.04.909-1.675 1.422l.378.467a43.837 43.837 0 001.7-1.444c.226-.204.42-.386.562-.53a3.19 3.19 0 00.181-.194.811.811 0 00.126-.183l-.548-.244zm-2.05-2.464c.62-.152 1.252.125 1.678.639.427.514.605 1.214.366 1.84l.56.214c.332-.868.071-1.793-.464-2.437-.535-.645-1.387-1.06-2.284-.838l.144.582zm-2.543 1.787a27.777 27.777 0 011.633-1.23c.237-.164.445-.3.61-.398.176-.105.276-.152.31-.162l-.164-.577c-.12.035-.284.122-.453.224-.18.108-.4.25-.644.42-.488.336-1.082.78-1.67 1.256l.378.466zm-2.112 1.691l2.11-1.69-.374-.469-2.11 1.691.374.468zm-2.245-1.843l1.847 1.823.421-.427-1.846-1.823-.422.427zm-1.935-2.146a.32.32 0 00.029.132c.009.02.02.038.026.05a.76.76 0 00.046.064c.031.04.073.088.121.142.098.11.237.257.405.432.338.351.801.82 1.307 1.325l.424-.424c-.505-.505-.965-.97-1.298-1.317a16.93 16.93 0 01-.39-.416 2.576 2.576 0 01-.096-.112l-.01-.014.012.024c.002.005.024.05.024.114h-.6zm1.25-2.304a97.77 97.77 0 00-.854 1.476c-.11.196-.202.36-.266.482a3.846 3.846 0 00-.104.217.414.414 0 00-.014.04c-.002.01-.012.045-.012.09h.6a.24.24 0 01-.01.071.129.129 0 01-.003.01v.001l.002-.005a97.205 97.205 0 011.178-2.078l-.517-.304zm1.168-2.351c0-.01 0 .006-.014.057a2.132 2.132 0 01-.063.183 7.58 7.58 0 01-.25.568c-.216.447-.514.999-.84 1.54l.515.31c.334-.556.64-1.124.865-1.59.112-.231.205-.441.27-.613a2.7 2.7 0 00.08-.236.842.842 0 00.037-.22h-.6zm-1.032-1.703c.247.11.508.36.71.69.202.328.322.697.322 1.013h.6c0-.453-.166-.93-.41-1.327-.243-.395-.586-.748-.977-.923l-.245.547zm-3.181 2.186c.74-1.236 1.258-1.91 1.728-2.216a1.1 1.1 0 01.645-.198c.225.005.483.076.804.226l.254-.543c-.36-.169-.705-.276-1.045-.283a1.7 1.7 0 00-.985.295c-.602.392-1.183 1.188-1.916 2.411l.515.308zm-1.553 2.277a.393.393 0 00.117-.076.792.792 0 00.062-.064c.037-.042.078-.096.122-.156.089-.121.201-.287.328-.484.256-.394.583-.924.924-1.497l-.515-.307a49.79 49.79 0 01-.912 1.478c-.125.193-.23.348-.31.456a1.67 1.67 0 01-.09.116l-.013.015.013-.01a.242.242 0 01.051-.028l.223.557zm-1.298-.24c.264.102.526.184.739.232.105.024.207.041.295.046a.744.744 0 00.14-.003.405.405 0 00.193-.074l-.36-.48a.225.225 0 01.066-.035l.025-.006h-.027a1.387 1.387 0 01-.2-.033 4.743 4.743 0 01-.652-.207l-.219.56zm-2.337-.736c.779.195 1.844.542 2.337.735l.219-.559a24.23 24.23 0 00-2.41-.758l-.146.582zm-1.478-.396l1.473.395.155-.58-1.473-.395-.155.58zm-.222-2.706v2.416h.6v-2.416h-.6zm-.427-2.762c.11.122.18.209.231.303.05.09.09.203.12.377.064.367.076.952.076 2.082h.6c0-1.11-.01-1.754-.084-2.184a1.767 1.767 0 00-.185-.563 2.136 2.136 0 00-.316-.42l-.442.405zm-1.997-.43c.424-.17.768-.21 1.072-.143.304.066.606.245.93.58l.431-.418c-.379-.39-.78-.65-1.234-.749-.455-.098-.924-.027-1.424.175l.225.556zm-1.176 3.144c.078-1.286.16-1.974.33-2.398.081-.199.178-.33.302-.437.13-.11.3-.205.55-.31l-.236-.553c-.268.114-.506.237-.705.408a1.674 1.674 0 00-.467.668c-.214.532-.296 1.326-.373 2.586l.6.036zm-.154 2.221l.154-2.218-.598-.041-.154 2.217.598.042zm-1.09.28h.791v-.6h-.791v.6zm-2.711.41a39.909 39.909 0 011.619-.288c.502-.077.898-.123 1.092-.123v-.6c-.246 0-.686.054-1.183.13-.506.078-1.093.183-1.646.293l.118.589zm-2.272.292a.302.302 0 00.179.087.688.688 0 00.114-.002 18.081 18.081 0 00.58-.099c.365-.068.86-.168 1.4-.277l-.12-.588c-.538.11-1.031.208-1.392.276a16.876 16.876 0 01-.533.092h-.006a.295.295 0 01.203.086l-.425.425zm-.9-2.14a413.947 413.947 0 01.769 1.88l.048.119.013.03.003.009.001.002.279-.112.277-.113v-.003l-.004-.007-.012-.032-.05-.12a398.77 398.77 0 00-.77-1.882l-.554.229zm-1.2-2.308c.028.025.09.103.185.251.09.14.194.324.307.537.226.428.48.968.708 1.52l.554-.229a18.85 18.85 0 00-.732-1.571 8.654 8.654 0 00-.33-.578 1.933 1.933 0 00-.288-.374l-.404.444zm-2.315.17c.29-.281.734-.453 1.19-.482.46-.03.875.087 1.127.313l.4-.446c-.408-.367-1.003-.502-1.566-.466-.565.036-1.155.249-1.568.65l.417.43zm.289 3.711c-.484-1.186-.718-1.957-.748-2.516a1.54 1.54 0 01.093-.669 1.58 1.58 0 01.37-.53l-.425-.425a2.169 2.169 0 00-.502.733c-.11.278-.153.58-.135.923.036.67.308 1.525.791 2.71l.556-.226zm.316 2.566a.687.687 0 00.296-.31c.069-.156.062-.328.029-.5-.065-.337-.273-.87-.642-1.758l-.554.23c.379.913.556 1.38.606 1.641.025.127.008.154.012.146.005-.012.012-.003-.055.037l.308.514zm-2.193 1.585a82.044 82.044 0 011.402-1.044c.2-.145.373-.268.509-.361.142-.098.228-.152.262-.168l-.268-.537a3.432 3.432 0 00-.333.21 22.9 22.9 0 00-.523.37 82.09 82.09 0 00-1.412 1.052l.363.478zm-1.848 1.385l1.846-1.384-.36-.48-1.846 1.384.36.48zm-2.025-1.44l1.649 1.427.392-.454-1.648-1.427-.393.453zm-2.087-1.515h.002l.005.001a.395.395 0 01.075.031c.048.023.108.055.179.096.142.084.318.2.515.341.395.282.866.655 1.31 1.044l.395-.451a17.993 17.993 0 00-1.356-1.081 7.847 7.847 0 00-.56-.37 1.653 1.653 0 00-.44-.198l-.125.587zm-1.923 1.07c.132-.324.446-.64.834-.854.391-.215.794-.292 1.077-.22l.15-.58c-.486-.125-1.05.018-1.517.274-.469.259-.902.667-1.1 1.155l.556.226zm1.686 3.161c-.937-.881-1.448-1.457-1.682-1.925a1.297 1.297 0 01-.156-.603 1.69 1.69 0 01.15-.63l-.553-.23a2.25 2.25 0 00-.197.856c-.002.294.071.58.22.876.287.575.876 1.218 1.807 2.093l.411-.437zm1.758 1.647l-1.759-1.647-.41.438 1.759 1.646.41-.437zm-.673 1.58l.725-1.207-.514-.309-.726 1.208.515.309zM22.261 32.8c.279-.708.843-1.835 1.23-2.481l-.513-.31a21.035 21.035 0 00-1.275 2.57l.558.22zm-.699 1.563c.038-.05.082-.138.12-.217.045-.092.1-.211.162-.349.122-.276.272-.63.417-.997l-.558-.22c-.142.358-.289.705-.408.973-.06.134-.111.247-.152.33-.047.096-.065.126-.06.12l.48.36zm-2.373-.173c.533.122 1.037.217 1.421.27.191.028.36.045.49.05.065.001.13 0 .188-.006a.532.532 0 00.1-.022.363.363 0 00.146-.087l-.424-.424a.24.24 0 01.094-.06l.011-.003a.69.69 0 01-.095.002 4.313 4.313 0 01-.427-.043 17.34 17.34 0 01-1.37-.262l-.134.585zm-3.916.026c.265-.274.586-.426 1.166-.441.601-.016 1.453.118 2.75.415l.134-.585c-1.297-.296-2.215-.448-2.9-.43-.706.018-1.187.217-1.581.623l.43.418zm-.465 1.219c0-.312.031-.53.098-.707.066-.173.173-.328.357-.503l-.412-.436c-.233.221-.401.45-.506.727-.103.273-.137.571-.137.919h.6zm2.533 2.012c-1.064-.23-1.692-.466-2.056-.769-.335-.279-.477-.64-.477-1.243h-.6c0 .714.176 1.275.693 1.704.487.405 1.245.664 2.313.895l.127-.587zm2.405.53a95.858 95.858 0 00-2.407-.53l-.123.587c.946.198 2.04.438 2.385.525l.145-.583zm.655.152l-.66-.154-.136.585.66.153.136-.584zm.407 2.797l-.176-2.526-.598.042.175 2.525.6-.041zm.22 3.142c-.022-.351-.11-1.759-.22-3.145l-.598.047c.11 1.381.197 2.784.22 3.136l.598-.038zm.044.658l-.044-.66-.599.04.044.66.599-.04zm-2.769.819l2.528-.505-.117-.589-2.528.506.117.588zm-2.842.955c.155-.181.337-.315.741-.455.42-.146 1.054-.29 2.101-.5l-.117-.588c-1.041.207-1.715.36-2.18.52-.48.168-.76.352-1 .632l.455.391zm.116 2.36c-.706-.706-.736-1.647-.118-2.358l-.452-.394c-.833.957-.775 2.256.146 3.176l.424-.425zm3.994.093c-1.574.31-2.402.448-2.935.426a1.301 1.301 0 01-.571-.135c-.153-.08-.298-.2-.491-.388l-.418.43c.203.198.398.368.632.49.239.124.5.188.823.202.62.027 1.53-.132 3.076-.436l-.116-.589zm2.843-.203a.383.383 0 00-.141-.088.594.594 0 00-.107-.027 1.391 1.391 0 00-.213-.015c-.153 0-.352.013-.584.038-.465.05-1.09.151-1.8.295l.12.588a20.323 20.323 0 011.745-.286 4.85 4.85 0 01.516-.035c.06 0 .098.004.118.007.01.002.008.002-.001-.001-.006-.003-.04-.015-.078-.052l.425-.424zm.789 1.61a24.564 24.564 0 00-.45-1.001 11.42 11.42 0 00-.18-.357 1.63 1.63 0 00-.137-.228l-.469.375.02.032.057.103c.045.086.102.2.167.335.13.27.288.617.44.975l.552-.234zm.361.86c-.122-.293-.247-.593-.361-.86l-.552.234.36.857.553-.231zm.538 1.264a64.355 64.355 0 01-.538-1.264l-.553.231c.21.503.416.997.544 1.28l.547-.247zm.354.841l-.351-.834-.553.233.352.834.552-.233zm-2.757 1.702l2.616-1.317-.27-.536-2.616 1.317.27.536zm-2.853 1.7s.015-.02.067-.066c.047-.041.112-.092.194-.152a9.96 9.96 0 01.652-.429 23.09 23.09 0 011.936-1.05l-.262-.54a24.05 24.05 0 00-1.987 1.078c-.274.167-.51.323-.693.456-.09.066-.17.129-.236.186a.99.99 0 00-.17.183l.499.333zm.251 2.237c-.639-.658-.732-1.572-.258-2.228l-.486-.352c-.669.925-.498 2.163.314 2.998l.43-.418zm4.197-.76c-1.485.775-2.34 1.16-2.933 1.252-.282.044-.488.018-.67-.056-.187-.077-.373-.215-.597-.44l-.424.425c.248.248.5.45.794.57.3.123.62.151.99.094.709-.11 1.656-.55 3.117-1.313l-.277-.532zm2.988-1.176a.31.31 0 00-.28-.085.64.64 0 00-.089.022c-.052.016-.116.04-.188.07-.147.059-.348.148-.589.26a53.5 53.5 0 00-1.84.909l.274.533c.7-.36 1.345-.677 1.819-.898.237-.11.429-.195.561-.249.068-.027.114-.044.141-.052.015-.005.014-.004.004-.002-.004 0-.024.003-.051.002-.014-.001-.106-.006-.186-.085l.424-.425zm1.21 1.88a57.13 57.13 0 00-.776-1.248 22.367 22.367 0 00-.357-.536.833.833 0 00-.077-.096l-.424.425c-.012-.012-.01-.014.015.021l.078.114c.066.098.155.233.26.397.21.327.483.764.768 1.234l.513-.311zm1.075 1.709l-1.078-1.713-.508.319 1.078 1.713.508-.32zm-1.992 2.45l1.956-2.086-.437-.41-1.957 2.086.438.41zM24.7 65.805c0-.188.01-.322.045-.45.034-.126.095-.263.215-.444.25-.374.717-.891 1.614-1.843l-.436-.412c-.884.938-1.394 1.496-1.678 1.923-.146.22-.24.416-.295.62a2.277 2.277 0 00-.065.606h.6zm1.678 1.83c-.416 0-.835-.21-1.156-.557-.321-.347-.522-.809-.522-1.273h-.6c0 .634.271 1.237.681 1.68.41.443.98.75 1.597.75v-.6zm2.34-1.714c-.761.749-1.233 1.181-1.584 1.428-.334.236-.533.286-.756.286v.6c.371 0 .689-.104 1.102-.395.397-.28.903-.748 1.659-1.492l-.421-.427zm2.482-1.534c-.127-.19-.341-.149-.386-.138a.86.86 0 00-.213.088 3.98 3.98 0 00-.483.334c-.375.291-.867.728-1.4 1.249l.42.429a17.11 17.11 0 011.348-1.205c.178-.138.314-.232.405-.282.048-.026.065-.03.059-.029-.003 0-.033.008-.076 0a.264.264 0 01-.173-.113l.5-.333zm3.392 4.273c0-.075-.03-.133-.032-.139a1.463 1.463 0 00-.087-.142 7.797 7.797 0 00-.193-.26 45.654 45.654 0 00-.7-.878 196.066 196.066 0 00-2.4-2.882l-.458.388c.966 1.141 1.8 2.144 2.392 2.872.296.364.53.659.69.866a7.109 7.109 0 01.214.293l-.003-.006a.28.28 0 01-.023-.112h.6zm-15.805 17.3a.31.31 0 00.082-.044 1.477 1.477 0 00.088-.076c.04-.038.092-.09.156-.154.128-.13.307-.316.529-.55a273.68 273.68 0 001.803-1.925c1.475-1.586 3.419-3.695 5.355-5.806a1225.38 1225.38 0 005.31-5.823 299.7 299.7 0 001.746-1.945c.21-.238.377-.43.492-.564a6.56 6.56 0 00.18-.223.445.445 0 00.042-.078.306.306 0 00.022-.112h-.6c0-.057.017-.098.02-.107a.254.254 0 01.014-.03l.008-.013a40.496 40.496 0 01-.627.73c-.42.473-1.02 1.141-1.742 1.94a1302.067 1302.067 0 01-10.66 11.623 272.36 272.36 0 01-1.798 1.92c-.221.233-.397.416-.521.541a6.517 6.517 0 01-.174.17l.004-.003.017-.011a.284.284 0 01.049-.024l.205.564zm-2.41-2.052a35.869 35.869 0 001.42 1.429c.192.18.357.328.482.431.061.05.119.095.168.128a.644.644 0 00.086.049.322.322 0 00.224.025l-.145-.583a.278.278 0 01.17.012c.01.004.01.005-.004-.003a1.612 1.612 0 01-.118-.091 9.833 9.833 0 01-.452-.405 34.44 34.44 0 01-1.394-1.404l-.436.412zM3.725 57.99c1.547 9.92 5.795 18.65 12.652 25.919l.436-.412C10.041 76.317 5.847 67.7 4.317 57.898l-.593.093zm-.088-13.375c-.223 1.538-.322 4.12-.305 6.688.016 2.566.148 5.149.394 6.688l.592-.095c-.238-1.492-.37-4.037-.386-6.597-.017-2.56.082-5.106.299-6.598l-.594-.086zM27.46 9.526C14.497 16.906 5.737 29.79 3.636 44.616l.594.085c2.075-14.643 10.726-27.365 23.527-34.654l-.297-.521zm18.778-6.01c-6.721.75-13.158 2.805-18.778 6.01l.297.521c5.546-3.163 11.903-5.193 18.548-5.935l-.067-.596zm12.283.397c-1.47-.245-3.85-.421-6.197-.498-2.347-.077-4.69-.056-6.086.1l.067.597c1.351-.151 3.658-.174 5.999-.097 2.34.076 4.688.252 6.118.49l.099-.592zm38.821 35.6c-1.68-6.673-4.954-13.279-9.138-18.387l-.464.38c4.126 5.037 7.36 11.562 9.02 18.153l.582-.146zm1.306 11.514c0-4.83-.288-7.424-1.306-11.513l-.582.144c1.004 4.036 1.288 6.58 1.288 11.37h.6zM95.994 66.96c1.967-5.655 2.654-9.795 2.654-15.932h-.6c0 6.072-.676 10.145-2.621 15.734l.566.198zM75.773 91.82c9.379-5.723 16.679-14.694 20.22-24.862l-.567-.198c-3.493 10.036-10.702 18.896-19.964 24.55l.312.512zm-49.554-.023c14.913 9.173 34.51 9.194 49.554.023l-.312-.513c-14.853 9.055-34.208 9.033-48.928-.02l-.314.51zm-5.555-4.485a.404.404 0 00.022.305.92.92 0 00.113.178 3.6 3.6 0 00.359.375c.3.279.733.634 1.25 1.027a49.178 49.178 0 003.81 2.6l.315-.51a48.55 48.55 0 01-3.762-2.567c-.51-.389-.926-.73-1.204-.99a2.928 2.928 0 01-.295-.305.594.594 0 01-.03-.042l-.01-.016.003.008a.233.233 0 01-.006.14l-.565-.203zm32.002-35.127c-8.76 9.563-16.735 18.282-22.524 24.628a3215.373 3215.373 0 00-6.872 7.551c-.814.898-1.448 1.601-1.88 2.085a64.572 64.572 0 00-.628.713 1.914 1.914 0 00-.06.077.387.387 0 00-.015.024.266.266 0 00-.029.068l.577.165c-.01.035-.024.059-.026.063a.239.239 0 01-.01.016l-.002.002.026-.032c.027-.032.067-.08.123-.143.11-.127.275-.312.49-.553.431-.482 1.064-1.184 1.878-2.082 1.628-1.796 3.976-4.376 6.87-7.55A18593.39 18593.39 0 0153.108 52.59l-.442-.405zm31.853-34.74l-31.853 34.74.442.405 31.853-34.74-.442-.405zm1.407 1.03l-.967-1.033-.438.41.967 1.032.438-.41zm2.277 2.649a111.394 111.394 0 00-2.272-2.644l-.448.399a107.3 107.3 0 012.257 2.627l.463-.383zM54.406 28.03c-2.192-2.391-5.23-4.264-8.424-5.202l-.169.576c3.093.907 6.035 2.724 8.151 5.032l.442-.406zm3.997 6.16c-2.285-4.038-2.761-4.79-3.995-6.158l-.446.402c1.184 1.311 1.631 2.008 3.919 6.051l.522-.295zm2.092 3.33c-.585-.8-1.523-2.303-2.09-3.328l-.526.291c.576 1.04 1.528 2.566 2.131 3.392l.485-.354zm1.098 1.493l-1.1-1.493-.482.355 1.099 1.494.483-.356zm-.56 1.029l.549-.659-.461-.384-.55.658.461.385zm-2.276 2.516a118.17 118.17 0 002.27-2.51l-.45-.396c-.307.35-1.316 1.49-2.258 2.496l.438.41zm-1.69 1.863l1.693-1.867-.445-.403-1.692 1.867.444.403zm-.956-.6l.506.593.456-.39-.505-.592-.457.39zm-4.916-7.562c1.105 2.053 3.908 6.353 4.914 7.56l.46-.385c-.971-1.165-3.752-5.428-4.846-7.46l-.528.285zm-1.975-3.19c.47.62 1.364 2.055 1.975 3.19l.528-.285c-.619-1.149-1.529-2.613-2.025-3.267l-.478.363zm-4.71-3.394c.819.329 1.781.886 2.652 1.513.874.63 1.632 1.311 2.056 1.88l.481-.36c-.477-.638-1.29-1.362-2.186-2.007-.899-.646-1.904-1.23-2.778-1.583l-.224.557zm-6.322-.338c.668-.165 1.938-.206 3.223-.137 1.288.068 2.514.243 3.101.476l.221-.558c-.687-.272-2-.449-3.29-.518-1.292-.069-2.638-.033-3.399.154l.144.583zm-6.485 4.51c1.431-2.112 3.94-3.87 6.486-4.51l-.146-.582c-2.687.676-5.322 2.52-6.836 4.756l.496.336zm-1.107 10.275c-1.292-3.763-.901-7.244 1.11-10.277l-.5-.332c-2.123 3.203-2.524 6.88-1.178 10.804l.568-.195zm8.98 15.89c-3.294-3.879-7.277-10.96-8.98-15.89l-.567.196c1.726 4.996 5.744 12.144 9.09 16.082l.456-.388zm1.362 1.603l-1.363-1.603-.457.389 1.363 1.603.457-.389zm-1.063 1.54l1.055-1.142-.44-.407-1.056 1.142.441.407zm-2.266 2.44a177.65 177.65 0 002.269-2.443l-.447-.401a175.32 175.32 0 01-2.26 2.432l.438.411zm-1.21 1.274l1.209-1.274-.435-.413-1.21 1.274.436.413zm-1.062-.737l.616.725.457-.389-.615-.725-.458.389zm-8.57-12.887c2.343 4.768 4.863 8.544 8.57 12.887l.457-.39c-3.678-4.308-6.17-8.042-8.488-12.761l-.539.264zm-3.675-9.917c.469 2.654 1.539 5.538 3.675 9.917l.54-.263c-2.129-4.362-3.17-7.187-3.624-9.759l-.59.105zm14.102-20.79c-9.475 2.076-15.757 11.339-14.102 20.789l.591-.103c-1.599-9.128 4.473-18.092 13.64-20.1l-.129-.586zm8.786.29c-1.111-.317-2.76-.51-4.392-.566-1.63-.055-3.281.026-4.395.276l.131.585c1.04-.233 2.633-.316 4.244-.261 1.61.054 3.204.245 4.247.543l.165-.577zm3.173 13.939c-1.273-2.409-2.677-3.916-4.556-4.808l-.257.542c1.726.82 3.049 2.212 4.282 4.546l.53-.28zm4.896 7.665c-1.66-2.16-3.607-5.241-4.897-7.666l-.53.282c1.304 2.45 3.27 5.56 4.952 7.75l.475-.366zm1.21 1.605l-1.208-1.603-.48.361 1.21 1.603.479-.36zm-.9 1.31l.879-.922-.435-.414-.879.922.434.414zm-5.778 6.298c2.706-2.967 5.296-5.796 5.777-6.297l-.434-.415c-.486.508-3.084 3.345-5.786 6.307l.443.405zm-3.316 3.638c.932-1.023 2.095-2.3 3.316-3.638l-.443-.405-3.317 3.64.444.403zm-.02.022l.02-.022-.444-.404-.02.022.444.404zm.002-.002l-.447-.4.447.4zm-.006.007l.004-.005-.444-.404-.004.005.444.404zm-.002.002l.002-.003-.444-.403-.002.002.444.404zm-2.045 2.241c.145-.156.927-1.015 2.045-2.241l-.444-.404c-1.119 1.228-1.899 2.084-2.041 2.238l.44.407zm-.514.514l.506-.505-.424-.424-.506.505.424.424zm-1.694-1.513l1.253 1.494.46-.386-1.254-1.493-.46.385zm-8.99-16.952c.45 2.13 1.785 5.261 3.453 8.4 1.671 3.142 3.694 6.323 5.535 8.55l.463-.382c-1.808-2.186-3.809-5.33-5.468-8.45-1.662-3.126-2.964-6.198-3.395-8.241l-.587.123zm5.752-9.983c-4.042 1.497-6.62 5.963-5.75 9.985l.586-.127c-.802-3.708 1.589-7.894 5.372-9.295l-.208-.563zm6.852.34c-.906-.44-2.16-.692-3.4-.754-1.24-.061-2.51.065-3.452.414l.208.563c.84-.31 2.02-.437 3.214-.378 1.194.06 2.36.302 3.167.695l.263-.54zm20.61 11.42l.747-.9-.462-.383-.747.9.461.383zm1.268.773l-1.297-1.186-.405.443 1.297 1.186.405-.443zm3.527 2.696c-1.224-.83-2.816-2.05-3.528-2.697l-.403.444c.74.672 2.356 1.91 3.594 2.75l.337-.497zm6.17 5.858c-1.456-2.194-3.137-3.801-6.17-5.858l-.337.497c2.99 2.027 4.607 3.583 6.008 5.693l.5-.332zm3.04 10.07c0-3.925-.853-6.749-3.039-10.07l-.5.33c2.122 3.224 2.94 5.934 2.94 9.74h.6zm-5.007 12.57c3.396-3.548 5.008-7.575 5.008-12.57h-.6c0 4.842-1.554 8.72-4.841 12.155l.433.415zm-19.936 4.288c6.949 2.767 14.795 1.094 19.936-4.288l-.434-.414c-4.97 5.202-12.556 6.823-19.28 4.144l-.222.558zm-12.586-7.512c3.626 2.937 8.62 5.94 12.586 7.512l.221-.558c-3.903-1.546-8.845-4.516-12.43-7.42l-.377.466zm-1.87-1.539l1.868 1.538.381-.464-1.868-1.537-.381.463zm-.445.915l.857-.945-.444-.403-.857.944.444.404zm-.712.741c.044.073.033.137.033.14-.002.011-.003.007.007-.014.018-.043.056-.111.118-.203a5.48 5.48 0 01.549-.659l-.434-.415c-.25.261-.464.521-.61.736a1.87 1.87 0 00-.175.306.67.67 0 00-.049.162.385.385 0 00.046.256l.515-.309zm4.747 3.793c-.394-.266-1.565-1.18-2.662-2.06a97.477 97.477 0 01-1.462-1.195c-.197-.164-.36-.303-.475-.406a4.201 4.201 0 01-.162-.152c-.01-.01.004.002.019.03l-.525.29c.022.04.05.07.061.083a4.706 4.706 0 00.208.197 20 20 0 00.489.418c.397.333.923.763 1.471 1.202 1.09.876 2.283 1.807 2.702 2.09l.336-.497zm.501.327l-.505-.33-.328.503.506.33.327-.503zm-1.266 2.19l1.34-1.757-.476-.364-1.341 1.757.477.364zm-1.664 3.45a1.495 1.495 0 01-.06-.54 1.89 1.89 0 01.184-.626c.234-.51.702-1.194 1.54-2.283l-.476-.366c-.834 1.084-1.344 1.818-1.61 2.4a2.478 2.478 0 00-.235.824 2.07 2.07 0 00.079.75l.578-.16zm1.667 1.228c-.44 0-.798-.116-1.071-.32-.273-.202-.48-.505-.597-.911l-.577.165c.148.516.424.937.816 1.228.392.292.88.438 1.43.438v-.6zm2.837-2.513c-.887 1.195-1.382 1.822-1.773 2.157a1.37 1.37 0 01-.493.292 1.895 1.895 0 01-.57.064v.6c.263 0 .507-.016.748-.091.246-.077.47-.207.705-.409.454-.39.993-1.08 1.865-2.256l-.482-.357zm.296-.397l-.296.396.481.359.296-.397-.481-.358zm.255-.342l-.255.342.48.359.256-.342-.481-.359zm.001-.002l-.001.002.48.36.002-.003-.48-.359zm.871-1.17c.011-.02.02-.032 0-.004a38.639 38.639 0 01-.238.324c-.158.214-.378.51-.633.85l.481.36a398.629 398.629 0 00.825-1.11l.056-.079a.629.629 0 00.046-.072l-.537-.268zm5.998 2.624a.536.536 0 00-.077-.062 6.168 6.168 0 00-.282-.165c-.166-.09-.39-.208-.652-.343a117.74 117.74 0 00-1.877-.937c-.674-.33-1.345-.652-1.853-.888a23.797 23.797 0 00-.622-.28 3.836 3.836 0 00-.194-.079.83.83 0 00-.08-.025.38.38 0 00-.14-.007.304.304 0 00-.164.085l.424.424a.295.295 0 01-.263.08c-.004 0 .001 0 .02.007.033.013.087.034.16.066.147.062.355.156.606.273a120.845 120.845 0 013.709 1.815c.26.133.479.248.638.336a5.655 5.655 0 01.234.135c.015.01.005.005-.01-.01l.423-.425zm-.653 2.702c.22-.651.409-1.248.54-1.685.064-.219.115-.4.15-.528a3.548 3.548 0 00.05-.224.37.37 0 00-.005-.114.303.303 0 00-.082-.151l-.424.424a.293.293 0 01-.085-.233l-.003.015a17.218 17.218 0 01-.177.64c-.128.43-.314 1.019-.532 1.663l.568.193zm-.034 3.595c-.204-.194-.338-.353-.424-.515a1.182 1.182 0 01-.13-.566c-.006-.498.18-1.224.59-2.52l-.572-.181c-.403 1.273-.625 2.095-.619 2.707.003.319.068.59.2.84.13.246.318.458.542.67l.413-.435zm2.297.104c-.253.228-.672.35-1.13.33-.456-.02-.893-.178-1.168-.436l-.41.439c.406.379.992.572 1.552.596.558.024 1.15-.117 1.557-.483l-.4-.446zm1.147-2.66a21.376 21.376 0 01-.68 1.78 8.2 8.2 0 01-.297.616 2.477 2.477 0 01-.154.246.355.355 0 01-.012.014l-.005.005.403.444c.103-.093.203-.255.294-.42a8.91 8.91 0 00.32-.664c.227-.514.478-1.165.7-1.832l-.569-.19zm.814-2.396l-.813 2.394.568.193.813-2.394-.568-.193zm1.243-.022l-.902-.176-.114.59.9.175.116-.59zm3.547.148c-1.477 0-3.078-.067-3.553-.15l-.103.592c.535.093 2.189.158 3.657.158v-.6zm2.682 0h-2.681v.6h2.681v-.6zm.992 2.7l-.703-2.482-.577.164.703 2.481.577-.163zm2.372 3.23c-.329 0-.573-.035-.772-.114a1.213 1.213 0 01-.527-.415c-.347-.45-.653-1.255-1.073-2.703l-.576.167c.414 1.428.746 2.347 1.174 2.902.223.289.476.486.781.607.299.118.629.155.993.155v-.6zm1.18-.512c-.197.228-.339.343-.49.41-.155.069-.353.101-.69.101v.6c.366 0 .663-.033.931-.152.271-.12.482-.311.703-.567l-.454-.392zm-.17-3.888c.397 1.299.587 2.102.602 2.673a1.76 1.76 0 01-.096.676 1.752 1.752 0 01-.336.539l.453.393a2.35 2.35 0 00.446-.722c.1-.27.142-.563.133-.902-.018-.664-.234-1.54-.628-2.833l-.574.176zm-.638-2.11l.638 2.109.574-.174-.638-2.108-.574.174zm2.178-1.344l-2.023.988.264.54 2.022-.989-.263-.539zm3.424-2.056c-.796.602-2.34 1.536-3.422 2.055l.26.541c1.115-.535 2.693-1.489 3.524-2.117l-.362-.479zm1.493-1.14l-1.494 1.141.364.477 1.495-1.142-.365-.477zm2.276 1.448l-1.912-1.45-.363.479 1.913 1.449.362-.478zm2.305 1.506l-.007-.002a2.932 2.932 0 01-.265-.128 9.412 9.412 0 01-.553-.338 27.57 27.57 0 01-1.481-1.04l-.36.481c.532.399 1.071.776 1.515 1.063.221.144.422.266.588.358.154.086.31.163.428.19l.135-.584zm1.931-2.554c.304.572.17 1.292-.25 1.848-.418.556-1.057.866-1.674.708l-.15.58c.922.237 1.789-.243 2.304-.927.516-.685.744-1.656.3-2.49l-.53.281zm-1.893-1.657c.477.357.932.73 1.283 1.043.175.157.322.296.431.408a2.674 2.674 0 01.168.19l.01.014.003.005.527-.287a1.806 1.806 0 00-.277-.34 9.25 9.25 0 00-.463-.438 20.848 20.848 0 00-1.322-1.075l-.36.48zm-1.879-1.668a.31.31 0 00.046.162.71.71 0 00.08.096c.03.03.07.066.116.105.094.081.226.191.386.32.321.26.763.608 1.248.982l.366-.475c-.482-.372-.92-.717-1.236-.973a15.2 15.2 0 01-.37-.307 2.256 2.256 0 01-.09-.08l-.006-.006c.002.001.01.011.02.026 0 .002.04.062.04.15h-.6zm.926-1.63c-.243.385-.464.744-.625 1.012a13.679 13.679 0 00-.251.44.753.753 0 00-.036.087.302.302 0 00-.014.091h.6c0 .044-.01.076-.011.08a.164.164 0 01-.006.018l.004-.009.045-.083c.042-.076.105-.183.184-.316.158-.263.377-.618.618-1.001l-.508-.32zm1.534-3.131c-.367.97-1.084 2.402-1.535 3.132l.51.316c.471-.763 1.205-2.23 1.586-3.236l-.561-.212zm1.336-2.017c-.188 0-.328.123-.41.21a2.291 2.291 0 00-.279.399c-.187.323-.402.795-.645 1.402l.557.223c.24-.6.443-1.04.608-1.325.083-.144.15-.237.198-.29.061-.065.048-.019-.03-.019v-.6zm2.078.45c-.455-.122-.91-.233-1.278-.314a11.89 11.89 0 00-.479-.096 2.118 2.118 0 00-.321-.04v.6h.005a.57.57 0 01.062.007c.04.005.09.013.15.023.12.022.276.053.455.092.357.079.804.188 1.25.307l.156-.58zm3.472-.123c-.359.348-.651.508-1.11.533-.496.027-1.194-.102-2.364-.41l-.153.58c1.16.306 1.947.462 2.55.429.64-.035 1.063-.282 1.495-.702l-.418-.43zm.331-1.946c.181.402.235.742.184 1.043-.05.3-.21.598-.518.906l.424.424c.373-.373.61-.778.686-1.23.075-.45-.014-.913-.229-1.39l-.547.247zm-3.297-1.48c1.36.354 2.121.578 2.585.797.227.106.367.205.467.307.1.1.172.216.246.377l.546-.248a1.831 1.831 0 00-.365-.551 2.175 2.175 0 00-.638-.428c-.525-.248-1.346-.485-2.69-.834l-.151.58zm-2.307-.592l2.308.593.15-.582-2.31-.592-.148.58zm-.357-2.69l.132 2.415.599-.032-.132-2.416-.6.033zm-.3-3.044c.038.163.091.581.147 1.146.055.557.11 1.234.153 1.901l.599-.04c-.044-.672-.1-1.356-.155-1.92-.054-.554-.11-1.015-.16-1.225l-.584.138zm-.048-.184c.016.059.032.116.047.18l.585-.13c-.018-.082-.038-.154-.054-.212l-.578.162zm-.002-.008l.582-.145-.582.145zm.002.01l.577-.165-.577.164zm-.043-.462a.625.625 0 00-.006.26c.012.069.032.141.049.2l.578-.162a1.478 1.478 0 01-.035-.139c-.005-.028-.001-.027-.005-.012l-.581-.147zm2.793-1.18c-1.004.284-1.647.465-2.045.608a2.26 2.26 0 00-.476.218.602.602 0 00-.272.354l.581.147c-.008.034-.03.033.021 0a1.76 1.76 0 01.348-.154c.374-.134.99-.309 2.006-.595l-.163-.578zm-.005.002l.172.574-.172-.574zm.014-.004l.145.582-.145-.582zm-.005.001l-.004.001.163.578.005-.002-.164-.577zm1.02-.29c-.376.108-.715.204-1.02.29l.163.577 1.022-.289-.164-.577zm1.32-3.123c.592.6.702 1.235.488 1.769-.221.551-.82 1.075-1.807 1.355l.164.577c1.1-.313 1.887-.931 2.2-1.709.318-.795.11-1.675-.618-2.413l-.427.42zm-3.834.12c1.454-.432 2.239-.63 2.76-.635.245-.002.418.04.569.116.157.079.31.204.507.4l.424-.424c-.21-.21-.418-.39-.661-.512a1.78 1.78 0 00-.846-.18c-.623.006-1.497.236-2.924.66l.171.575zm-2.705.44a.307.307 0 00.276.17.56.56 0 00.085-.005c.046-.006.104-.017.167-.03.128-.028.307-.072.52-.127.43-.11 1.014-.27 1.652-.446l-.16-.578c-.638.175-1.218.334-1.64.443a11.94 11.94 0 01-.615.143c-.013.002-.008 0 .007 0a.29.29 0 01.244.162l-.536.268zm-1.063-1.686a353.05 353.05 0 01.979 1.55l.084.136.536-.268a4.012 4.012 0 00-.11-.184 362.958 362.958 0 00-.981-1.556l-.508.322zm-1.91-2.69c.496.58 1.365 1.775 1.906 2.683l.515-.308a24.353 24.353 0 00-1.963-2.764l-.457.39zm-.683-1.636a.365.365 0 00-.134.282.588.588 0 00.031.19c.034.104.094.222.164.34.144.239.365.534.627.829l.449-.398a5.365 5.365 0 01-.561-.74 1.157 1.157 0 01-.108-.215c-.007-.022-.002-.017-.002.006a.236.236 0 01-.092.175l-.374-.47zm2.244-1.533c-.562.364-1.092.717-1.496.993-.201.138-.373.257-.501.35a2.77 2.77 0 00-.272.212l.424.425a6.184 6.184 0 01.199-.15c.123-.09.29-.206.49-.342.398-.273.923-.623 1.482-.984l-.326-.504zm2.266-1.76c-.02.03-.092.109-.237.238-.137.12-.317.269-.528.434-.423.33-.962.722-1.507 1.092l.338.496a29.85 29.85 0 001.538-1.115c.217-.17.408-.326.557-.459.14-.125.27-.25.338-.352l-.5-.333zM79.09 41.97c1.266.189 1.926 1.678 1.207 2.692l.489.347c.995-1.402.072-3.382-1.608-3.633l-.088.594zm-3.59 1.862c1.368-.926 2.125-1.418 2.625-1.668a1.99 1.99 0 01.552-.202c.133-.023.253-.017.411.008l.093-.593a1.807 1.807 0 00-.604-.007 2.58 2.58 0 00-.72.257c-.544.272-1.337.79-2.694 1.708l.336.497zm-3.012 2.042l3.012-2.042-.337-.497-3.012 2.043.337.496zm-1.813-1.034l1.472 1.032.345-.492-1.473-1.032-.344.492zm-2.77-2.125c.706.595 1.926 1.57 2.777 2.13l.33-.502c-.82-.539-2.018-1.495-2.72-2.087l-.386.46zm-1.235-1.05c-.043 0-.072-.01-.073-.01a.897.897 0 01.081.05c.076.05.18.127.307.226.251.198.576.473.913.778l.402-.446a19.22 19.22 0 00-.944-.804 5.567 5.567 0 00-.346-.255 1.491 1.491 0 00-.138-.082.613.613 0 00-.075-.033.381.381 0 00-.127-.023v.6zm-.714.814a8.14 8.14 0 01.574-.626 2.5 2.5 0 01.199-.178.479.479 0 01.044-.031c.002-.002-.003.002-.014.006-.008.003-.04.016-.089.016v-.6a.357.357 0 00-.13.025.503.503 0 00-.07.035 1.02 1.02 0 00-.11.077 3.27 3.27 0 00-.247.219 8.605 8.605 0 00-.62.675l.463.382zm-6.7 6.376c-.227.26-.426.521-.559.742a1.69 1.69 0 00-.156.322.644.644 0 00-.033.178.408.408 0 00.065.241l.499-.333a.19.19 0 01.035.111c0 .011-.002.01.005-.011.013-.04.044-.107.1-.198.108-.18.283-.413.496-.658l-.452-.394zm1.127-.982a.338.338 0 00-.14.032.47.47 0 00-.063.035 1.005 1.005 0 00-.096.073 3.946 3.946 0 00-.221.204c-.168.165-.381.389-.603.633l.444.404c.218-.24.422-.455.579-.609a3.42 3.42 0 01.225-.203l-.017.009a.256.256 0 01-.108.022v-.6zm1.653 1.264a24.576 24.576 0 00-.986-.85 8.287 8.287 0 00-.338-.264 1.915 1.915 0 00-.121-.082.646.646 0 00-.062-.034c-.008-.003-.069-.034-.146-.034v.6a.277.277 0 01-.107-.022c-.006-.002-.006-.003.003.002.015.01.042.028.08.056.077.055.183.138.313.243.26.21.601.503.96.83l.404-.445zm6.148 4.61c-2.834-1.997-4.87-3.528-6.156-4.617l-.388.458c1.308 1.107 3.36 2.65 6.198 4.65l.346-.49zm3.955 5.038c-.322-.862-.93-1.856-1.639-2.76-.71-.904-1.538-1.74-2.318-2.28l-.341.495c.715.493 1.501 1.281 2.187 2.156.687.874 1.256 1.814 1.549 2.599l.562-.21zM69.093 71.65c3.652-3.333 4.826-8.25 3.045-12.868l-.56.216c1.692 4.385.58 9.042-2.89 12.21l.405.442zm-10.588 2.616c3.66.948 7.809-.088 10.587-2.615l-.403-.444c-2.63 2.391-6.57 3.375-10.033 2.478l-.15.581zm-8.331-4.123c1.33.864 2.974 1.776 4.498 2.53 1.52.75 2.943 1.354 3.83 1.593l.157-.58c-.828-.222-2.207-.804-3.721-1.552-1.509-.745-3.13-1.645-4.438-2.494l-.326.503zm-5.852-4.687c0 .112.054.204.08.248.036.056.083.115.133.172.1.115.241.252.41.406.34.307.816.697 1.37 1.126a58.915 58.915 0 003.86 2.735l.325-.504a58.296 58.296 0 01-3.818-2.705 23.956 23.956 0 01-1.334-1.097 4.738 4.738 0 01-.363-.357.804.804 0 01-.074-.095c-.019-.03.01.002.01.07h-.6zm.879-1.267c-.23.23-.437.471-.59.676-.075.102-.14.2-.189.285a1.06 1.06 0 00-.064.13.484.484 0 00-.036.176h.6c0 .04-.011.06-.005.044a.501.501 0 01.028-.056 2.22 2.22 0 01.148-.221c.134-.18.322-.4.532-.61l-.424-.424zm.788-.81l-.79.813.429.419.791-.813-.43-.418zm1.767 1.074l-1.363-1.098-.377.468 1.363 1.098.377-.468zm11.029 6.493c-2.746-.907-7.88-3.937-11.029-6.492l-.378.466c3.183 2.583 8.38 5.658 11.218 6.596l.189-.57zm8.547-2.074c-2.095 2.199-5.6 3.07-8.545 2.075l-.192.568c3.165 1.07 6.914.14 9.172-2.23l-.435-.413zm1.53-9.521c1.57 3.22.981 6.821-1.532 9.524l.44.408c2.673-2.875 3.316-6.74 1.632-10.195l-.54.262zm-4.161-4.099c2.379 1.592 3.45 2.676 4.163 4.101l.537-.268c-.782-1.562-1.953-2.717-4.367-4.332l-.333.5zm-6.134-4.922c.06.095.18.22.312.346.142.136.328.303.546.493.437.378 1.01.85 1.63 1.348 1.242.992 2.69 2.09 3.645 2.735l.335-.498c-.935-.63-2.367-1.717-3.604-2.706a55.203 55.203 0 01-1.613-1.333 14.733 14.733 0 01-.524-.472 3.75 3.75 0 01-.202-.21l-.015-.02-.51.317zM52.34 62.265c-1.21-2.334.041-5.084 2.55-5.675l-.137-.584c-2.899.683-4.33 3.862-2.946 6.535l.533-.276zm2.495 1.87c-1.213-.335-2.034-.949-2.493-1.866l-.537.268c.553 1.104 1.534 1.807 2.87 2.176l.16-.579zm1.254 1.033a1.586 1.586 0 00-.467-.655 2.058 2.058 0 00-.788-.38l-.156.58c.258.07.435.158.563.263a.989.989 0 01.291.415l.557-.223zm4.797 2.754c-.97.01-2.017-.305-2.905-.82-.89-.519-1.587-1.217-1.894-1.94l-.552.235c.374.88 1.184 1.665 2.145 2.223.964.56 2.116.914 3.212.903l-.006-.6zm3.596-1.473c-1.02.998-2.154 1.453-3.598 1.474l.01.6c1.59-.023 2.873-.535 4.008-1.645l-.42-.429zm1.69-3.892c0 .874-.112 1.538-.37 2.13-.26.594-.675 1.14-1.319 1.76l.417.432c.676-.652 1.15-1.26 1.452-1.951.302-.692.42-1.445.42-2.371h-.6zm-.622-2.6c.283.511.432.833.515 1.182.085.352.107.75.107 1.418h.6c0-.671-.02-1.13-.123-1.558-.104-.43-.285-.811-.574-1.332l-.525.29zm-5.771-2.683c2.336-.438 4.583.601 5.773 2.687l.521-.298c-1.316-2.306-3.816-3.463-6.404-2.979l.11.59zm-2.141-.256c.331.195.6.318.937.355.322.036.686-.01 1.199-.098l-.1-.592c-.52.089-.806.119-1.033.094-.213-.023-.395-.097-.7-.276l-.303.517zm-2.747-.428c.844-.2 1.91-.04 2.752.431l.293-.523c-.961-.539-2.181-.73-3.184-.492l.139.584zm4.75 2.633c-.413.154-.725.266-.973.34-.25.074-.414.103-.532.103a.433.433 0 01-.252-.07 1.617 1.617 0 01-.31-.291l-.448.4c.139.155.278.298.438.399.17.108.354.162.572.162.205 0 .434-.048.702-.128.27-.08.6-.199 1.013-.352l-.21-.563zm3.795.93c-1.045-1.09-2.423-1.435-3.794-.93l.207.563c1.135-.418 2.264-.146 3.153.782l.434-.414zm-2.727 5.932c3.215.047 4.922-3.594 2.729-5.93l-.438.411c1.808 1.925.437 4.96-2.283 4.919l-.009.6zm-3.383-2.717c.495 1.646 1.763 2.693 3.382 2.717l.01-.6c-1.327-.02-2.389-.862-2.817-2.29l-.575.173zm-1.447-.951c.324.022.559.043.738.076.177.032.276.072.34.116.128.088.209.244.37.762l.573-.179c-.147-.47-.274-.852-.603-1.077a1.449 1.449 0 00-.573-.212 7.59 7.59 0 00-.805-.085l-.04.599zm-2.193-2.034c0 .593.189 1.093.585 1.452.39.352.942.535 1.607.582l.042-.598c-.588-.042-.992-.199-1.246-.429-.246-.223-.388-.547-.388-1.007h-.6zm3.882-1.084c-.75-.798-1.7-1.095-2.495-.89-.813.212-1.387.93-1.387 1.974h.6c0-.8.416-1.257.938-1.392.54-.14 1.273.046 1.907.72l.437-.412zm-19.324-24.57c-.622.316-1.103.636-1.513 1.054-.41.418-.734.92-1.06 1.584l.538.265c.31-.63.601-1.073.95-1.43.35-.355.77-.64 1.357-.938l-.272-.535zm4.976.11c-.74-.375-1.637-.57-2.514-.59-.876-.02-1.757.133-2.459.478l.265.539c.595-.292 1.374-.435 2.18-.417.805.018 1.61.197 2.256.525l.272-.535zm2.814 3.464c-.374-1.448-1.488-2.79-2.814-3.464l-.272.535c1.18.6 2.176 1.805 2.505 3.08l.581-.15zm-3.393 6.636c2.56-.977 4.115-4.008 3.392-6.64l-.578.159c.64 2.33-.752 5.053-3.028 5.92l.214.561zm-4.068-.047c.503.209 1.28.308 2.026.316.747.009 1.528-.073 2.042-.269l-.213-.56c-.41.155-1.102.238-1.822.23-.72-.009-1.406-.107-1.804-.271l-.23.554zm-2.902-7.526c-1.4 2.797-.067 6.275 2.9 7.525l.233-.553c-2.661-1.121-3.834-4.23-2.596-6.704l-.537-.268zm6.436.304c1.05.827 1.36 2.06.842 3.075l.534.273c.67-1.312.231-2.846-1.005-3.82l-.371.472zm-1.463-.397c.709 0 1.117.124 1.463.397l.371-.472c-.49-.386-1.048-.525-1.834-.525v.6zm-1.711.669c.348-.315.56-.47.781-.555.22-.086.474-.114.93-.114v-.6c-.468 0-.818.026-1.148.155-.329.128-.61.347-.966.67l.403.444zm-.715 1.754c0-.57.02-.828.104-1.03.081-.198.235-.37.615-.728l-.411-.437c-.368.345-.62.6-.759.936-.136.33-.149.71-.149 1.259h.6zm.554 1.658c-.267-.276-.388-.446-.457-.649-.073-.213-.097-.491-.097-1.01h-.6c0 .515.02.885.129 1.204.112.33.31.577.592.871l.433-.416zm4.178-.611c-.454.867-1.173 1.356-1.927 1.467-.753.11-1.576-.15-2.25-.855l-.434.415c.798.833 1.81 1.175 2.772 1.033.96-.141 1.836-.76 2.37-1.782l-.531-.279z" fill="#5A0057" mask="url(#path-1-outside-1_5_121)"/></svg>