<svg width="38" height="50" fill="none" xmlns="http://www.w3.org/2000/svg"><path d="M12.6.178c-1.006.264-2.012.83-2.794 1.562-1.386 1.31-2.138 2.725-2.636 5-.059.245-.108.274-.44.274-.205 0-.703.088-1.123.195-3.125.801-5.39 3.975-5.596 7.862-.029.615 0 1.406.06 1.855.058.43 1.474 5.947 3.134 12.275l3.027 11.495v8.808l.244.235c.313.322.762.322 1.075 0l.244-.235V40.5L4.767 29.006C3.107 22.688 1.691 17.18 1.633 16.78c-.43-2.744.761-5.927 2.734-7.304.908-.645 1.533-.84 2.695-.85 1.006-.02 1.367-.117 1.455-.41.03-.098.118-.576.196-1.064.605-3.565 3.261-6.006 6.015-5.518 1.26.225 2.324.908 3.38 2.188.234.283.37.36.624.36s.39-.077.625-.36c1.055-1.28 2.12-1.963 3.38-2.188 1.337-.234 2.675.195 3.798 1.24 1.182 1.084 1.914 2.51 2.217 4.278.078.488.166.966.195 1.064.088.293.45.39 1.455.41 1.162.01 1.787.205 2.695.85 1.973 1.377 3.155 4.56 2.735 7.304-.059.4-1.475 5.557-3.135 11.446L29.67 38.928v10.576l.244.235c.312.322.762.322 1.074 0l.244-.235V39.153L34.26 28.45c1.894-6.73 3.066-11.016 3.134-11.553.596-4.424-1.884-8.76-5.537-9.688-.42-.107-.918-.195-1.123-.195-.332 0-.38-.03-.44-.274-.507-2.294-1.269-3.72-2.665-5.02-1.543-1.424-3.487-2-5.43-1.589-.947.194-2.129.8-2.852 1.464l-.615.557-.605-.557C16.623.246 14.474-.31 12.599.178z" fill="#8B898B"/><path d="M13.234 3.987c-1.504.38-2.754 1.943-3.017 3.789-.313 2.177.713 4.365 2.431 5.175.479.225.703.264 1.397.264 1.035 0 1.719-.283 2.47-1.045 2.266-2.256 1.7-6.592-1.015-7.93-.615-.292-1.631-.41-2.266-.253zm1.543 1.65c.528.234 1.172.977 1.387 1.602.234.683.234 1.992 0 2.675a3.607 3.607 0 01-.586.967c-.947 1.084-2.12 1.074-3.076-.01-1.055-1.2-1.055-3.388.01-4.6.683-.78 1.474-.995 2.265-.634zm7.833-1.65c-1.505.38-2.755 1.943-3.018 3.789-.313 2.177.713 4.365 2.431 5.175.479.225.703.264 1.397.264 1.035 0 1.718-.283 2.47-1.045 2.266-2.256 1.7-6.592-1.015-7.93-.615-.292-1.631-.41-2.266-.253zm1.542 1.65c.527.234 1.172.977 1.387 1.602.234.683.234 1.992 0 2.675a3.61 3.61 0 01-.586.967c-.947 1.084-2.12 1.074-3.076-.01-1.055-1.2-1.055-3.388.01-4.6.683-.78 1.474-.995 2.265-.634zM5.969 11.096c-1.045.371-1.788 1.084-2.334 2.217-1.172 2.431-.245 5.566 1.962 6.65.508.244.694.283 1.416.283.704 0 .909-.039 1.368-.263 1.064-.528 1.757-1.329 2.216-2.588.84-2.315-.127-5.137-2.08-6.094-.81-.4-1.777-.479-2.548-.205zm1.777 1.572c.527.235 1.172.977 1.387 1.602.244.713.234 2.002-.02 2.695a3.658 3.658 0 01-.586.967c-.928 1.055-2.11 1.045-3.047-.02-1.064-1.21-1.064-3.398-.01-4.6.694-.79 1.475-1.005 2.276-.644zm21.66-1.572c-1.045.371-1.787 1.084-2.334 2.217-1.172 2.431-.244 5.566 1.963 6.65.508.244.693.283 1.416.283.703 0 .908-.039 1.367-.263 1.065-.528 1.758-1.329 2.217-2.588.84-2.315-.127-5.137-2.08-6.094-.81-.4-1.777-.479-2.549-.205zm1.777 1.572c.528.235 1.172.977 1.387 1.602.244.713.234 2.002-.02 2.695a3.659 3.659 0 01-.585.967c-.928 1.055-2.11 1.045-3.047-.02-1.065-1.21-1.065-3.398-.01-4.6.693-.79 1.475-1.005 2.275-.644zM17.54 15.793c-1.103.361-1.982 1.035-2.792 2.139-.752 1.025-3.223 5.556-3.506 6.435-.293.928-.39 2.032-.234 2.784.439 2.09 2.353 3.613 5.02 3.974.985.137 4.423.137 5.41 0 2.665-.361 4.58-1.884 5.019-3.974.156-.752.058-1.856-.235-2.784-.312-.976-2.998-5.83-3.71-6.709-.635-.78-1.534-1.474-2.286-1.757-.8-.303-1.963-.352-2.685-.108zm2.354 1.67c.518.254 1.3.977 1.68 1.524.566.82 3.027 5.38 3.193 5.898.098.322.166.86.166 1.318 0 .655-.039.87-.273 1.338-.45.909-1.328 1.533-2.705 1.904-.938.254-5.508.254-6.445 0-1.377-.37-2.256-.995-2.705-1.904-.235-.468-.274-.683-.274-1.338 0-.459.068-.996.166-1.318.166-.518 2.627-5.078 3.193-5.898.537-.772 1.426-1.495 2.159-1.729.42-.137 1.386-.03 1.845.205z" fill="#8B898B"/></svg>