<svg version="1.0" xmlns="http://www.w3.org/2000/svg" width="682.667" height="682.667" viewBox="0 0 512 512"><g fill="#5a0057"><path d="M197.8 42.4l-64.7 42.5-41.3.4c-45.1.4-45.9.5-58.3 6.6-11.1 5.6-21.1 15.5-26.5 26.6-6.4 13-6 2.1-6 180.5C1 478.2.6 465.7 7.4 479.5c6.6 13.2 18.8 23.9 33.6 29.3l7.5 2.7 203.8.3 203.8.2 2.4-2.4 2.5-2.5V401.2l13.3-.4c12.1-.4 13.7-.6 19-3.3 7.3-3.6 13.9-10.8 16.6-18.1 2-5.3 2.1-7.4 2.1-63.9 0-52.2-.2-58.9-1.7-62.7-3.7-9.5-11.3-17.1-20.5-20.4-2.5-.9-9.4-1.8-16.5-2.1l-12.3-.6V90.3l-2.6-2.4-2.6-2.4-27.4-.3-27.3-.3-6.1-19.2c-3.4-10.6-7.3-22.8-8.7-27.2-3-9.5-5.4-12.5-9.8-12.5-1.7 0-18.6 5.9-37.4 13.1-18.8 7.2-34.7 12.9-35.4 12.6-.7-.2-8.2-11.3-16.6-24.7-8.5-13.3-16.4-24.8-17.5-25.6C268.5.6 266.4 0 265 0c-1.6 0-25.4 15-67.2 42.4zm76.6-3.3c6.4 9.9 11.8 18.5 11.9 19 .1.7-138.1 54.1-195.3 75.5-.8.3-1.2.3-.9 0C91.2 132.5 261.6 21 262.2 21c.3 0 5.9 8.1 12.2 18.1zm97.5 10.1c23.1 73 43.1 137 43.1 137.8 0 .7-4 1-12.2.8l-12.1-.3-12.2-36.4c-8.6-25.7-12.8-36.9-14.3-38.1-1.1-.9-4.8-2-8.1-2.3-8.1-.9-13.9-3.8-21.7-10.8-4.2-3.9-7.3-5.9-8.9-5.9-2.4 0-25.6 8.5-185 67.5l-72 26.7-8.7-.5c-5.9-.4-10.6-1.3-14.7-3-7.2-2.9-15.5-8.9-13.7-9.9.6-.3 59.6-22.9 131.1-50.1 71.5-27.3 147.1-56.1 168-64.1 20.9-7.9 38.5-14.5 39.2-14.5.6-.1 1.6 1.4 2.2 3.1zM105 102.7c-.1.5-19.1 13.2-42.3 28.4-35.3 23-42.4 27.3-43.1 26-.6-.9-1.2-5.5-1.4-10.2-.7-13.6 3.3-23.3 13.3-32.8 6.4-6.1 13.9-9.8 22.1-11 7.4-1.1 51.4-1.4 51.4-.4zM444 145v43h-5c-4.3 0-5.2-.3-6-2.3-1.4-3.3-26-81.4-26-82.7 0-.6 6.2-1 18.5-1H444v43zm-107.3-22.3c3 1.4 7.8 3.1 10.6 3.8l5.2 1.1 9.7 28.5c5.3 15.6 9.7 29.2 9.7 30.1.1 1.7-6.5 1.8-126.1 1.7-81.2 0-125.6-.4-124.3-1 1.1-.5 46.8-17.5 101.5-37.8l99.5-36.8 4.4 3.9c2.4 2.1 6.8 5 9.8 6.5zM25 193.1c2.5 1.9 7.3 4.7 10.7 6.2 13.3 6 2.3 5.7 214.1 5.7H444v77h-51.1c-56.8 0-57 0-70.3 6.7-13.7 6.9-26 22.4-30 37.9-2 7.8-2.1 21.2-.1 28.9 2.1 8.2 7.7 19.1 13 25.2 5.9 6.7 16.4 13.7 25.5 17.1l7.5 2.7 52.8.3 52.7.3V495H250.5c-138.5 0-194.9-.3-198.7-1.1-13-2.8-23.9-11.3-29.9-23.4l-3.4-7-.3-137.9c-.2-111 0-137.7 1-136.9.7.6 3.3 2.6 5.8 4.4zM481.4 248c14.3 3.3 18.5 20.8 7.3 30.1-3.2 2.6-11.1 4.1-19.7 3.7l-7.5-.3-.3-16c-.1-8.7 0-16.5.2-17.2.6-1.5 13.9-1.8 20-.3zm13.6 85.9c0 38.6 0 38.8-2.3 42.2-1.2 1.9-4.2 4.4-6.7 5.7l-4.5 2.3-70.5-.3c-69.4-.3-70.6-.3-75.7-2.4-12.3-5.1-21.7-15.3-25.5-27.7-6.1-20.2 3-41.1 22.1-50.5l7.5-3.7 73-.5c65-.5 73.5-.7 77.1-2.2 2.2-.9 4.3-1.7 4.8-1.7.4-.1.7 17.4.7 38.8z"/><path d="M48.2 237.2l-1.9 8.3 2.1.7c1.2.3 9.2.6 17.9.7l15.7.1v-17H67.6c-7.9 0-15.1-.3-15.9-.6-1.2-.4-1.9 1.3-3.5 7.8zm68.5-6.5c-.4.3-.7 4.2-.7 8.5v7.8h34v-17h-16.3c-9 0-16.7.3-17 .7zm68.3 7.8v8.5h34.1l-.3-8.3-.3-8.2-16.7-.3-16.8-.2v8.5zm68 0v8.5h34v-17h-34v8.5zm68.7-7.8c-.4.3-.7 4.2-.7 8.5v7.8h34v-17h-16.3c-9 0-16.7.3-17 .7zm68-.1c-.4.4-.7 4.3-.7 8.6v7.8h30.1l-.3-8.3-.3-8.2-14.1-.3c-7.7-.1-14.3.1-14.7.4zM48.2 459.1c-1.1 4.6-1.8 8.6-1.6 8.9.3.3 8.4.7 18 .8l17.4.4V452H68.3c-7.6 0-14.7-.3-15.9-.6-1.9-.5-2.3.2-4.2 7.7zm68.5-6.4c-.4.3-.7 4.2-.7 8.5v7.8h34v-17h-16.3c-9 0-16.7.3-17 .7zm68.3 7.8v8.5h34v-17h-34v8.5zm68 0v8.5h34v-17h-34v8.5zm68 0v8.5h34v-17h-34v8.5zm68.7-7.9c-.4.4-.7 4.3-.7 8.6v7.8h30.1l-.3-8.3-.3-8.2-14.1-.3c-7.7-.1-14.3.1-14.7.4zm-50.5-134c-8.7 4.3-14.1 12.7-14.2 22 0 10.2 4.6 18.2 13.2 23 6.9 3.7 17 4.1 23.3.7 14.9-7.9 18.9-26.2 8.5-39.3-7-8.8-20.4-11.6-30.8-6.4zm15.9 15.7c2.1 1.6 3.9 5.1 3.9 7.7 0 3-5.3 8-8.5 8-3.8 0-8.5-5-8.5-9 0-6.1 8.3-10.4 13.1-6.7z"/></g></svg>