<svg width="292" height="54" fill="none" xmlns="http://www.w3.org/2000/svg"><path d="M286.826 3.06c.453.1.664.448.843 1.434.338 1.813.053 4.104-.716 5.847-.295.688-.316.787-.19 1.066.39.907.748 2.052.906 2.869.095.508.19.936.211.956.011.02.664-.13 1.444-.318.78-.2 1.592-.36 1.803-.36.906 0 1.212 1.146.411 1.525-.159.08-1.033.309-1.929.518-.896.21-1.666.418-1.697.468-.032.06-.095.418-.127.807-.094 1.006-.516 2.51-1.001 3.546l-.411.877 1.845.936c2.245 1.136 2.445 1.285 2.445 1.753 0 .478-.148.697-.58.827-.358.11-.432.09-2.087-.757-.938-.468-1.908-.966-2.139-1.106l-.433-.229-.484.548-.475.548.411 1.464c1.128 4.054 2.266 6.654 4.1 9.344 1.497 2.181 2.066 3.416 2.382 5.16.232 1.225.148 3.486-.147 4.552-.622 2.211-1.497 3.675-3.13 5.24-1.202 1.145-1.993 1.693-3.299 2.29-1.012.469-1.529.369-1.761-.338-.147-.468.127-.797 1.044-1.226 2.73-1.294 4.521-3.396 5.407-6.365.147-.508.189-.986.179-2.29 0-1.485-.032-1.724-.285-2.5-.411-1.266-.674-1.784-1.749-3.378-2.013-2.978-3.299-5.797-4.29-9.363-.158-.578-.316-1.076-.358-1.126-.032-.04-.517.22-1.075.568-4.575 2.839-10.53 2.67-14.935-.438-.749-.528-2.098-1.783-2.614-2.42l-.222-.27-2.044 1.056c-2.266 1.185-2.572 1.265-2.994.797-.316-.339-.326-.777-.021-1.086.137-.14 1.096-.677 2.14-1.215 1.043-.528 1.908-.976 1.929-.986.01-.02-.148-.369-.348-.777-.485-1.006-.875-2.321-1.033-3.517l-.137-.976-1.781-.438c-2.003-.498-2.266-.638-2.266-1.225 0-.468.347-.797.853-.797.201 0 .991.16 1.771.349.78.189 1.433.338 1.444.318.021-.02.126-.478.242-1.026.201-.996.454-1.803.833-2.63l.2-.438-.358-.826c-.696-1.614-.991-3.567-.769-5.25.231-1.843.432-2.052 1.949-2.052 1.982.01 3.974.638 5.418 1.723l.443.329.969-.319c2.583-.846 5.723-.856 8.327-.04.506.17.969.3 1.022.3.053 0 .348-.18.654-.4.727-.517 1.855-1.035 2.835-1.294.759-.21 2.898-.349 3.425-.24zm-3.035 1.892c-.569.16-1.56.608-1.908.857-.179.13-.158.17.401.518.716.448 2.213 1.783 2.761 2.46.211.27.411.469.432.449.021-.02.127-.369.243-.777.242-.917.358-2.232.253-3.118l-.074-.677-.77.07c-.432.04-1.033.139-1.338.218zm-20.237.389c-.19 1.384.19 3.387.907 4.87.21.43.379.838.379.897 0 .06-.19.518-.422 1.026-.442.967-.779 2.122-.895 3.019l-.074.547 1.349.32c.896.218 1.423.398 1.591.537.538.488.127 1.385-.621 1.385-.19 0-.791-.11-1.328-.24-.527-.129-.97-.199-.97-.159 0 .28.358 1.783.569 2.351.242.687.654 1.534.748 1.534a3.4 3.4 0 00.464-.21c.474-.228.759-.188 1.138.14.443.379.201 1.235-.39 1.415-.305.09-.263.18.264.747 2.224 2.36 5.122 3.606 8.432 3.616 2.54.01 4.785-.668 6.777-2.042.727-.498 2.234-1.933 2.234-2.112 0-.08-.158-.23-.358-.339-.674-.378-.601-1.265.127-1.524.253-.09.611-.01 1.296.29.2.089 1.065-2.381 1.202-3.407l.073-.538-.98.239c-1.275.308-1.613.308-1.939-.01-.316-.29-.338-.728-.053-1.066.158-.2.485-.319 1.592-.588l1.38-.339-.052-.597c-.422-4.134-3.879-7.83-8.401-8.995-.896-.23-1.201-.26-2.845-.26-1.613-.01-1.961.02-2.741.22a12.209 12.209 0 00-3.583 1.564c-1.16.737-1.529.807-1.95.398a.76.76 0 01-.169-.936c.063-.1.38-.369.717-.608.337-.239.653-.468.706-.508.126-.1-.675-.557-1.486-.846-.78-.28-1.581-.429-2.192-.409l-.422.02-.074.598z" fill="#5a0057"/><path d="M278.099 12.891c.19.19.232.349.232.907 0 .578-.032.697-.263.906-.633.608-1.529.1-1.529-.856 0-.538.211-1.026.475-1.126.379-.13.864-.06 1.085.17zm-5.565-.049c.253.199.401.976.274 1.464-.168.647-.991.877-1.486.398-.221-.209-.263-.328-.263-.876 0-.827.242-1.166.843-1.166.232 0 .495.08.632.18zm4.269 4.163c.411.419.337.718-.422 1.773-.379.518-.685 1.046-.685 1.176 0 .578.506.986 1.391 1.125.422.06.823.439.823.767 0 .27-.274.738-.475.817-.569.2-1.623-.04-2.382-.538l-.305-.209-.348.25c-.791.577-2.077.746-2.467.328-.305-.309-.358-.518-.221-.867.116-.319.548-.597.928-.597.263 0 .758-.23.948-.439.074-.09.169-.308.211-.488.063-.279 0-.418-.601-1.235-.822-1.125-.885-1.375-.506-1.803l.285-.319h3.573l.253.26zm-11.647 12.093c.348.329.348.598-.01 1.544-.738 1.982-2.15 4.632-3.457 6.455-1.613 2.261-2.214 4.702-1.75 7.152.569 3.118 2.466 5.538 5.502 7.063.527.259.685.388.769.657.106.289.095.388-.073.657-.338.548-.696.568-1.676.1-4.511-2.142-7.167-7.112-6.314-11.834.316-1.743.886-3.038 2.161-4.92 1.465-2.162 2.182-3.487 3.014-5.569.253-.627.538-1.215.633-1.315.242-.259.927-.249 1.201.01zM241.381 33c3.119 0 5.068 1.075 6 2 .979.984 1.394 3.004 1.958 5.44.449 1.92.737 2.606 1.393 3.223.875.845 1.866 1.104 4.215 1.104 1.681 0 1.693 0 1.923.258.334.368.311.845-.046 1.134-.242.199-.461.248-1.359.308-2.614.169-4.56-.308-5.965-1.472-1.105-.915-1.52-1.76-2.119-4.306C246.955 38.84 247 39 246.5 38c-.5-2.523-3.962-2-6.115-2-.807 0-2.601-.923-2.278-1.5.287-.527-.411-1.5 3.274-1.5zm33.525 1.059c.116.02.316.13.442.249l.243.199v8.178c0 7.72.01 8.198.2 8.577.527 1.105 1.887 1.384 2.761.557.559-.518.633-.866.454-2.22a73.563 73.563 0 01-.274-3.338c-.19-3.297.073-7.192.727-10.688.147-.767.232-.996.464-1.225.369-.349.853-.359 1.201-.02.306.279.327.508.106 1.593-.296 1.465-.57 3.776-.696 5.907-.137 2.321-.032 5.32.285 7.71.147 1.156.147 1.325-.011 1.883-.2.767-.443 1.136-1.065 1.684-.727.637-1.296.836-2.36.846-1.012 0-1.571-.18-2.245-.747l-.39-.319-.327.27c-.19.139-.58.378-.875.527-.453.22-.675.26-1.433.27-.749 0-.991-.04-1.476-.26-.801-.358-1.275-.767-1.676-1.474-.453-.807-.495-1.305-.263-3.168.158-1.265.2-2.26.2-5.11-.011-3.755-.095-4.86-.632-7.76-.264-1.424-.243-1.663.179-1.942.506-.339 1.138-.12 1.338.468.148.439.496 2.41.717 4.154.274 2.112.274 8.168-.011 10.39-.189 1.494-.189 1.593-.01 2.022.464 1.155 2.171 1.364 2.983.358l.284-.348.053-8.328c.042-6.325.084-8.377.179-8.537.148-.249.611-.418.928-.358z" fill="#5a0057"/><path d="M62.4 39.296h3.852v1.22H63.91V45H62.4v-5.704zm4.604 0h1.407v.838a2.106 2.106 0 011.778-.967c.662 0 1.224.26 1.686.779.462.519.693 1.242.693 2.17 0 .952-.233 1.693-.698 2.223-.466.527-1.03.79-1.692.79a1.94 1.94 0 01-.86-.188c-.254-.125-.522-.34-.805-.645v2.874h-1.51v-7.874zm1.493 2.755c0 .641.127 1.116.381 1.424.254.304.564.456.93.456.35 0 .642-.14.875-.419.233-.283.349-.745.349-1.386 0-.597-.12-1.041-.36-1.332-.24-.29-.537-.435-.891-.435-.37 0-.675.144-.919.43-.243.283-.365.704-.365 1.262zm4.41-2.755h1.606l1.364 4.05 1.332-4.05h1.563l-2.014 5.49-.36.993c-.133.333-.26.587-.382.762a1.557 1.557 0 01-.413.425 1.735 1.735 0 01-.575.258c-.225.06-.482.09-.768.09-.29 0-.575-.03-.854-.09l-.134-1.182c.236.047.45.07.639.07.35 0 .61-.104.779-.312.168-.204.297-.465.386-.784l-2.17-5.72zm6.73 0h1.869l1.418 3.974 1.428-3.974h1.864V45h-1.284v-3.754L83.542 45h-1.29l-1.326-3.754V45h-1.29v-5.704zm8.061 0h1.45v3.582l2.321-3.582h1.483V45h-1.45v-3.647L89.148 45h-1.45v-5.704zm6.747 0h1.509v2.09h2.16v-2.09h1.514V45h-1.515v-2.395h-2.16V45h-1.508v-5.704zm6.649 0h3.851v1.22h-2.342V45h-1.509v-5.704zm12.681 1.686l-1.488.269c-.05-.297-.164-.521-.343-.671-.176-.15-.405-.226-.688-.226-.376 0-.677.13-.902.392-.222.258-.333.691-.333 1.3 0 .677.113 1.155.338 1.434.229.28.536.419.919.419.286 0 .521-.08.703-.242.183-.164.312-.446.387-.843l1.482.252c-.154.68-.449 1.195-.886 1.542s-1.022.52-1.756.52c-.834 0-1.501-.262-1.998-.789-.494-.526-.741-1.255-.741-2.186 0-.941.248-1.674.746-2.197.498-.526 1.171-.789 2.02-.789.694 0 1.246.15 1.654.451.412.297.707.752.886 1.364zm2.417.054l-1.369-.247c.154-.551.419-.96.794-1.224.376-.265.935-.398 1.676-.398.673 0 1.175.08 1.504.242.33.157.561.36.693.607.136.243.204.693.204 1.348l-.016 1.762c0 .5.023.871.07 1.111.05.237.141.49.274.763h-1.493c-.04-.1-.088-.249-.145-.446a2.457 2.457 0 00-.054-.177 2.73 2.73 0 01-.827.564 2.371 2.371 0 01-.94.188c-.587 0-1.051-.16-1.391-.478-.337-.319-.505-.722-.505-1.209 0-.322.077-.608.231-.859a1.49 1.49 0 01.644-.58c.28-.136.681-.254 1.203-.355.706-.132 1.195-.256 1.467-.37v-.15c0-.29-.072-.496-.215-.618-.143-.126-.414-.188-.811-.188-.269 0-.478.053-.629.16-.15.105-.272.29-.365.554zm2.02 1.225c-.194.064-.5.141-.919.23-.419.09-.693.178-.822.264-.196.14-.295.317-.295.532 0 .21.079.394.236.547a.826.826 0 00.602.231c.272 0 .532-.09.779-.268a.953.953 0 00.36-.5c.039-.128.059-.374.059-.735v-.301zm3.384-2.965h5.054V45h-1.504v-4.48h-2.057v2.563c0 .651-.076 1.11-.226 1.375-.15.26-.317.433-.499.515-.183.083-.477.124-.881.124a6.18 6.18 0 01-.951-.097v-1.112c.032 0 .116.004.252.01.158.012.28.017.366.017.204 0 .329-.066.376-.199.046-.136.07-.51.07-1.122v-3.298zm6.085 2.771c0-.5.124-.986.371-1.455.247-.47.596-.827 1.047-1.074a3.13 3.13 0 011.52-.371c.863 0 1.57.281 2.122.843.551.559.827 1.266.827 2.122 0 .863-.28 1.579-.838 2.148-.555.566-1.255.849-2.1.849a3.33 3.33 0 01-1.499-.355 2.44 2.44 0 01-1.079-1.036c-.247-.459-.371-1.015-.371-1.67zm1.547.08c0 .567.134 1 .403 1.3.268.301.599.452.993.452s.724-.15.989-.451c.268-.301.402-.738.402-1.31 0-.56-.134-.99-.402-1.29a1.265 1.265 0 00-.989-.451c-.394 0-.725.15-.993.451-.269.3-.403.734-.403 1.3zm5.468-2.851h1.509v2.09h2.159v-2.09h1.515V45h-1.515v-2.395h-2.159V45h-1.509v-5.704zM149.181 45h-4.318v1.504h-1.225v-2.74h.618c.258-.286.471-.733.639-1.342.169-.609.269-1.65.301-3.126h4.603v4.469h.612v2.739h-1.23V45zm-.875-1.235l.005-3.228h-1.826c-.061 1.575-.311 2.651-.752 3.228h2.573zm3.55-4.47h5.054V45h-1.503v-4.48h-2.058v2.563c0 .651-.075 1.11-.225 1.375-.151.26-.317.433-.5.515-.182.083-.476.124-.881.124a6.18 6.18 0 01-.95-.097v-1.112c.032 0 .116.004.252.01.158.012.28.017.365.017.205 0 .33-.066.376-.199.047-.136.07-.51.07-1.122v-3.298zm11.473 0V45h-1.499v-2.369h-.139c-.326 0-.566.043-.72.13-.15.082-.319.259-.505.531l-.091.113-.994 1.595h-1.756l1.079-1.654c.308-.473.588-.745.838-.817-.422-.025-.766-.184-1.031-.478-.261-.297-.392-.675-.392-1.133 0-.369.086-.684.258-.945.175-.262.406-.439.693-.532.29-.097.719-.145 1.289-.145h2.97zm-1.499.973h-1.079c-.398 0-.677.057-.838.172-.161.11-.242.297-.242.559 0 .26.092.449.274.563.183.115.482.172.897.172h.988v-1.466zm11.07.714l-1.488.269c-.05-.297-.164-.521-.343-.671-.176-.15-.405-.226-.688-.226-.376 0-.677.13-.902.392-.222.258-.333.691-.333 1.3 0 .677.113 1.155.338 1.434.229.28.536.419.919.419.286 0 .521-.08.703-.242.183-.164.312-.446.387-.843l1.482.252c-.154.68-.449 1.195-.886 1.542s-1.022.52-1.756.52c-.834 0-1.501-.262-1.998-.789-.494-.526-.741-1.255-.741-2.186 0-.941.248-1.674.746-2.197.498-.526 1.171-.789 2.02-.789.694 0 1.246.15 1.654.451.412.297.707.752.886 1.364zm.801 1.085c0-.5.123-.986.37-1.455.247-.47.596-.827 1.047-1.074a3.135 3.135 0 011.52-.371c.863 0 1.571.281 2.122.843.552.559.827 1.266.827 2.122 0 .863-.279 1.579-.838 2.148-.555.566-1.255.849-2.1.849a3.326 3.326 0 01-1.498-.355 2.437 2.437 0 01-1.08-1.036c-.247-.459-.37-1.015-.37-1.67zm1.546.08c0 .567.135 1 .403 1.3.269.301.6.452.994.452s.723-.15.988-.451c.269-.301.403-.738.403-1.31 0-.56-.134-.99-.403-1.29a1.263 1.263 0 00-.988-.451c-.394 0-.725.15-.994.451-.268.3-.403.734-.403 1.3zm9.808-5.204h1.026c-.032.455-.152.8-.36 1.037-.204.233-.711.35-1.52.35-.097 0-.193-.003-.29-.006h-.193c-.48 0-.871.053-1.171.16-.301.105-.548.309-.742.613-.189.304-.288.795-.295 1.472.222-.42.509-.732.859-.94.355-.208.776-.312 1.263-.312.748 0 1.382.292 1.901.876.519.58.779 1.253.779 2.02 0 .798-.274 1.484-.822 2.056-.544.573-1.257.86-2.138.86-.605 0-1.137-.145-1.595-.435a2.42 2.42 0 01-.983-1.187c-.197-.505-.295-1.34-.295-2.503 0-1.368.25-2.35.752-2.949.505-.598 1.384-.897 2.637-.897h.763c.211 0 .352-.071.424-.215zm-3.04 5.248c0 .52.129.93.387 1.235.261.301.58.451.956.451.404 0 .736-.155.993-.467.262-.315.392-.72.392-1.214 0-.505-.132-.911-.397-1.219-.261-.311-.585-.467-.972-.467-.376 0-.697.152-.962.456-.265.305-.397.713-.397 1.225zm6.687-1.155l-1.37-.247c.154-.551.419-.96.795-1.224.376-.265.935-.398 1.676-.398.673 0 1.175.08 1.504.242.329.157.56.36.693.607.136.243.204.693.204 1.348l-.016 1.762c0 .5.023.871.07 1.111.05.237.141.49.274.763h-1.494a6.053 6.053 0 01-.145-.446 3.464 3.464 0 00-.053-.177 2.73 2.73 0 01-.827.564 2.371 2.371 0 01-.94.188c-.588 0-1.051-.16-1.392-.478-.336-.319-.504-.722-.504-1.209 0-.322.077-.608.231-.859.154-.254.368-.448.644-.58.279-.136.68-.254 1.203-.355.706-.132 1.194-.256 1.466-.37v-.15c0-.29-.071-.496-.214-.618-.144-.126-.414-.188-.811-.188-.269 0-.478.053-.629.16-.15.105-.272.29-.365.554zm2.019 1.225a9.363 9.363 0 01-.918.23c-.419.09-.693.178-.822.264-.197.14-.295.317-.295.532 0 .21.079.394.236.547a.826.826 0 00.602.231c.272 0 .531-.09.779-.268a.946.946 0 00.359-.5c.04-.128.059-.374.059-.735v-.301zm2.917-2.965h1.504v2.331c.251-.029.428-.106.532-.231.103-.125.229-.4.376-.822.193-.562.404-.922.633-1.08.23-.157.53-.236.903-.236.114 0 .313.01.596.027l.005 1c-.397 0-.651.037-.762.112-.111.079-.231.313-.36.704-.176.526-.428.85-.758.972.477.132.88.546 1.209 1.24l.059.113.843 1.574h-1.622l-.752-1.649c-.154-.333-.288-.546-.403-.64-.111-.096-.277-.144-.499-.144V45h-1.504v-5.704zm8.594 0h1.45v3.582l2.32-3.582h1.483V45h-1.451v-3.647L203.682 45h-1.45v-5.704zm9.807 0h1.504v2.331c.251-.029.428-.106.532-.231.104-.125.229-.4.376-.822.193-.562.405-.922.634-1.08.229-.157.53-.236.902-.236.115 0 .313.01.596.027l.006 1c-.398 0-.652.037-.763.112-.111.079-.231.313-.36.704-.175.526-.428.85-.757.972.476.132.879.546 1.208 1.24l.059.113.844 1.574h-1.622l-.752-1.649c-.154-.333-.289-.546-.403-.64-.111-.096-.278-.144-.5-.144V45h-1.504v-5.704zm5.071 2.771c0-.5.123-.986.37-1.455.247-.47.596-.827 1.048-1.074a3.13 3.13 0 011.52-.371c.863 0 1.57.281 2.121.843.552.559.827 1.266.827 2.122 0 .863-.279 1.579-.837 2.148-.556.566-1.256.849-2.101.849a3.329 3.329 0 01-1.498-.355 2.437 2.437 0 01-1.08-1.036c-.247-.459-.37-1.015-.37-1.67zm1.547.08c0 .567.134 1 .402 1.3.269.301.6.452.994.452s.723-.15.988-.451c.269-.301.403-.738.403-1.31 0-.56-.134-.99-.403-1.29a1.263 1.263 0 00-.988-.451c-.394 0-.725.15-.994.451-.268.3-.402.734-.402 1.3zm5.489-2.851h1.386v4.485h1.751v-4.485h1.391v4.485h1.745v-4.485h1.391V45h-7.664v-5.704zm12.514 3.889l1.504.252c-.193.551-.499.972-.918 1.262-.415.287-.936.43-1.563.43-.992 0-1.726-.324-2.202-.972-.376-.52-.564-1.175-.564-1.966 0-.945.247-1.685.741-2.218.494-.538 1.119-.806 1.875-.806.848 0 1.518.281 2.008.843.491.559.725 1.416.704 2.573h-3.781c.01.448.132.797.365 1.047.233.247.523.371.87.371a.924.924 0 00.596-.193c.161-.13.283-.337.365-.623zm.086-1.526c-.01-.437-.123-.768-.338-.993a1.035 1.035 0 00-.784-.344c-.33 0-.602.12-.817.36-.214.24-.32.565-.316.977h2.255zm2.675-2.363h1.504v2.331c.251-.029.428-.106.532-.231.104-.125.229-.4.376-.822.193-.562.404-.922.634-1.08.229-.157.53-.236.902-.236.115 0 .313.01.596.027l.006 1c-.398 0-.652.037-.763.112-.111.079-.231.313-.36.704-.175.526-.428.85-.757.972.476.132.879.546 1.208 1.24l.059.113.843 1.574h-1.622l-.752-1.649c-.154-.333-.288-.546-.402-.64-.111-.096-.278-.144-.5-.144V45h-1.504v-5.704z" fill="#5a0057"/><path d="M60.947 34.998l181.057-.515" stroke="#5a0057" stroke-width="3"/><path d="M94.6 22.648c.208 0 .368.096.48.288.128.192.192.456.192.792 0 .624-.152 1.12-.456 1.488-.768.928-1.544 1.648-2.328 2.16-.784.496-1.712.744-2.784.744-1.184 0-2.152-.344-2.904-1.032-.752-.704-1.456-1.792-2.112-3.264-.48-1.056-.88-1.84-1.2-2.352-.304-.528-.608-.896-.912-1.104-.304-.224-.688-.36-1.152-.408l-.264 1.776c-.336 2.288-.992 3.936-1.968 4.944-.96 1.008-2.288 1.512-3.984 1.512-1.104 0-2.088-.264-2.952-.792-.848-.544-1.44-1.232-1.776-2.064a2.56 2.56 0 01-.168-.936c0-.48.112-.896.336-1.248.224-.352.512-.528.864-.528.208 0 .384.056.528.168.144.096.28.272.408.528.496.928.928 1.576 1.296 1.944.384.368.856.552 1.416.552.64 0 1.184-.288 1.632-.864.464-.592.792-1.496.984-2.712l.336-2.28h-.384c-.368 0-.656-.104-.864-.312-.208-.208-.312-.496-.312-.864 0-.416.104-.744.312-.984.224-.256.496-.384.816-.384h.792c.112-.784.192-1.328.24-1.632l.744-5.4a10.286 10.286 0 00-1.176-.072c-1.36 0-2.392.24-3.096.72-.704.464-1.056 1.136-1.056 2.016 0 .4.04.728.12.984.096.24.216.512.36.816a.953.953 0 01.096.432c0 .352-.168.664-.504.936-.32.256-.68.384-1.08.384-.512 0-.888-.224-1.128-.672a5.464 5.464 0 01-.72-2.736c0-1.008.272-1.928.816-2.76.56-.832 1.4-1.496 2.52-1.992 1.12-.512 2.504-.768 4.152-.768.72 0 1.376.04 1.968.12.608.08 1.272.232 1.992.456.784.24 1.176.688 1.176 1.344 0 .88-.376 1.32-1.128 1.32l-.936 6.456c1.872-.192 3.392-.992 4.56-2.4 1.184-1.424 2.168-3.352 2.952-5.784.144-.448.384-.792.72-1.032.352-.24.792-.36 1.32-.36.448 0 .792.104 1.032.312.256.192.384.472.384.84 0 .112-.032.296-.096.552-.8 2.64-1.944 4.736-3.432 6.288-1.488 1.552-3.112 2.584-4.872 3.096.608.144 1.104.36 1.488.648.4.288.736.648 1.008 1.08.272.416.584 1 .936 1.752.496 1.056.96 1.808 1.392 2.256.432.432.936.648 1.512.648.512 0 1-.168 1.464-.504.464-.352 1.048-.944 1.752-1.776.192-.224.408-.336.648-.336zm6.685 5.472c-1.424 0-2.712-.32-3.864-.96-1.136-.64-2.04-1.576-2.712-2.808-.672-1.248-1.008-2.736-1.008-4.464 0-2.432.44-4.576 1.32-6.432.896-1.856 2.104-3.288 3.624-4.296a9.08 9.08 0 015.088-1.512c1.424 0 2.704.32 3.84.96 1.152.64 2.064 1.584 2.736 2.832.672 1.232 1.008 2.712 1.008 4.44 0 2.432-.448 4.576-1.344 6.432-.88 1.856-2.088 3.288-3.624 4.296-1.52 1.008-3.208 1.512-5.064 1.512zm.24-2.832c1.248 0 2.344-.384 3.288-1.152.96-.768 1.696-1.832 2.208-3.192.512-1.376.768-2.928.768-4.656 0-1.904-.4-3.344-1.2-4.32-.8-.992-1.832-1.488-3.096-1.488-1.232 0-2.32.384-3.264 1.152-.944.752-1.68 1.816-2.208 3.192-.528 1.36-.792 2.912-.792 4.656 0 1.904.4 3.352 1.2 4.344.8.976 1.832 1.464 3.096 1.464zm33.61-2.64c.208 0 .368.096.48.288.128.192.192.456.192.792 0 .624-.152 1.12-.456 1.488-1.584 1.936-3.272 2.904-5.064 2.904-1.552 0-2.792-.6-3.72-1.8-.928-1.2-1.392-2.92-1.392-5.16 0-.544.024-1.088.072-1.632a33.93 33.93 0 01-3.456.432c-.832.064-1.4.104-1.704.12-.32 1.632-.768 3.632-1.344 6-.336 1.392-.976 2.088-1.92 2.088-1.024 0-1.536-.464-1.536-1.392 0-.208.04-.496.12-.864.544-2.192.976-4.048 1.296-5.568l-1.152.048c-.528 0-.912-.088-1.152-.264-.24-.192-.36-.496-.36-.912 0-.528.152-.912.456-1.152.304-.256.808-.4 1.512-.432l1.272-.048c.416-2.256.624-3.976.624-5.16 0-.752-.112-1.264-.336-1.536a1.093 1.093 0 00-.888-.408c-1.12 0-2.384.936-3.792 2.808-.208.272-.44.408-.696.408-.224 0-.416-.104-.576-.312-.16-.208-.24-.472-.24-.792 0-.496.2-1.024.6-1.584a8.534 8.534 0 012.664-2.4c1.072-.64 2.16-.96 3.264-.96 1.04 0 1.84.36 2.4 1.08.576.704.864 1.808.864 3.312 0 1.328-.192 3.128-.576 5.4l2.352-.12a24.872 24.872 0 002.592-.24c.288-1.76.728-3.408 1.32-4.944.592-1.536 1.328-2.784 2.208-3.744.88-.96 1.864-1.44 2.952-1.44.8 0 1.432.32 1.896.96.464.624.696 1.448.696 2.472 0 3.968-2.024 6.72-6.072 8.256-.048.64-.072 1.304-.072 1.992 0 1.68.208 2.872.624 3.576.416.704 1 1.056 1.752 1.056.656 0 1.256-.168 1.8-.504.544-.352 1.16-.944 1.848-1.776.192-.224.408-.336.648-.336zm-3.24-13.608c-.352 0-.728.32-1.128.96-.384.64-.752 1.512-1.104 2.616a24.642 24.642 0 00-.84 3.624c1.28-.528 2.224-1.28 2.832-2.256.608-.976.912-2.232.912-3.768 0-.368-.064-.656-.192-.864-.128-.208-.288-.312-.48-.312zm19.897 1.848c1.296 0 2.272.432 2.928 1.296.672.848 1.008 2.072 1.008 3.672 0 2-.288 3.784-.864 5.352-.576 1.568-1.408 2.792-2.496 3.672-1.072.88-2.328 1.32-3.768 1.32-1.152 0-2.184-.4-3.096-1.2-.416 2.592-1.128 4.736-2.136 6.432-1.008 1.696-2.248 2.544-3.72 2.544-.944 0-1.768-.264-2.472-.792-.688-.528-1.208-1.224-1.56-2.088a2.712 2.712 0 01-.216-1.08c0-.464.112-.856.336-1.176.224-.32.544-.48.96-.48.416 0 .728.08.936.24.208.16.36.416.456.768.192.688.416 1.216.672 1.584.256.384.624.576 1.104.576.448 0 .888-.512 1.32-1.536.448-1.008.824-2.448 1.128-4.32l.384-2.424c-.688.896-1.44 1.616-2.256 2.16-.8.528-1.624.792-2.472.792-1.264 0-2.232-.432-2.904-1.296-.656-.864-.984-2.088-.984-3.672 0-2 .288-3.784.864-5.352.576-1.568 1.4-2.792 2.472-3.672 1.088-.88 2.352-1.32 3.792-1.32 1.2 0 2.256.424 3.168 1.272.288-1.616.552-2.76.792-3.432a33.24 33.24 0 00-1.464-.024h-1.512c-1.104 0-2.096-.104-2.976-.312-.88-.224-1.6-.488-2.16-.792-.24-.128-.36-.4-.36-.816 0-.384.104-.76.312-1.128.208-.384.448-.576.72-.576.08 0 .168.024.264.072.656.336 1.432.616 2.328.84.896.224 1.824.336 2.784.336l2.76-.024c.912 0 1.664.04 2.256.12.512.064.864.192 1.056.384.208.176.312.416.312.72 0 .512-.12.888-.36 1.128-.224.24-.6.344-1.128.312-.32 1.104-.664 2.8-1.032 5.088.672-.944 1.424-1.704 2.256-2.28.832-.592 1.688-.888 2.568-.888zm-13.128 12.744c.624 0 1.336-.408 2.136-1.224.8-.832 1.624-1.904 2.472-3.216l.648-4.224a4.512 4.512 0 00-1.296-1.128c-.464-.272-.936-.408-1.416-.408-.784 0-1.464.368-2.04 1.104-.56.72-.992 1.696-1.296 2.928-.288 1.232-.432 2.592-.432 4.08 0 .816.104 1.368.312 1.656.208.288.512.432.912.432zm9.936.024c.784 0 1.456-.36 2.016-1.08.576-.736 1.008-1.72 1.296-2.952.304-1.232.456-2.592.456-4.08 0-.832-.104-1.384-.312-1.656-.208-.288-.52-.432-.936-.432-.64 0-1.384.44-2.232 1.32-.832.88-1.664 1.992-2.496 3.336a129.867 129.867 0 00-.504 4.008c.368.48.792.856 1.272 1.128.48.272.96.408 1.44.408zm25.669-.024c.24-.096.44-.144.6-.144.256 0 .448.096.576.288.128.192.192.44.192.744 0 .48-.12.888-.36 1.224-.224.336-.616.64-1.176.912-.944.448-2.168.808-3.672 1.08a26.429 26.429 0 01-4.44.384c-2.016 0-3.704-.224-5.064-.672-1.36-.464-2.376-1.096-3.048-1.896-.656-.8-.984-1.704-.984-2.712 0-1.376.44-2.544 1.32-3.504.896-.976 2.208-1.68 3.936-2.112-.944-.272-1.672-.752-2.184-1.44a3.847 3.847 0 01-.744-2.304c0-1.152.36-2.168 1.08-3.048.736-.896 1.72-1.584 2.952-2.064s2.584-.72 4.056-.72c1.984 0 3.472.432 4.464 1.296.992.848 1.488 1.952 1.488 3.312 0 .944-.176 1.712-.528 2.304-.336.576-.824.864-1.464.864-.448 0-.8-.096-1.056-.288-.256-.208-.384-.512-.384-.912 0-.272.04-.568.12-.888.08-.528.12-.888.12-1.08 0-.576-.216-1.04-.648-1.392-.432-.368-1.152-.552-2.16-.552-1.36 0-2.448.288-3.264.864-.816.576-1.224 1.352-1.224 2.328 0 .752.304 1.376.912 1.872.624.48 1.632.744 3.024.792.352.016.6.096.744.24.144.144.216.384.216.72 0 1.056-.48 1.592-1.44 1.608-1.328.032-2.432.216-3.312.552-.864.336-1.496.768-1.896 1.296-.384.512-.576 1.064-.576 1.656 0 .992.464 1.744 1.392 2.256.928.496 2.4.744 4.416.744 1.328 0 2.728-.152 4.2-.456 1.488-.32 2.76-.704 3.816-1.152zM192.786 8.08c.496.096.864.264 1.104.504.256.24.384.52.384.84 0 .528-.152.912-.456 1.152-.288.24-.752.336-1.392.288a93.77 93.77 0 00-3.384-.216c-.8-.048-1.856-.08-3.168-.096a271.194 271.194 0 00-1.632 8.88c-.176 1.088-.36 2.352-.552 3.792a59.182 59.182 0 00-.384 3.456c-.032.464-.224.824-.576 1.08-.352.24-.776.36-1.272.36-.528 0-.936-.128-1.224-.384-.288-.256-.432-.592-.432-1.008 0-.384.056-1.016.168-1.896.128-.896.272-1.832.432-2.808a57.21 57.21 0 00.408-2.544c.176-1.216.376-2.424.6-3.624.224-1.2.448-2.336.672-3.408.048-.24.104-.512.168-.816.064-.32.136-.672.216-1.056-1.568.048-2.8.176-3.696.384-.896.208-1.536.504-1.92.888-.368.368-.552.848-.552 1.44 0 .544.16 1.064.48 1.56a.714.714 0 01.096.36c0 .304-.184.592-.552.864-.352.256-.72.384-1.104.384a.96.96 0 01-.672-.24c-.32-.272-.584-.656-.792-1.152-.208-.512-.312-1.088-.312-1.728 0-1.36.44-2.448 1.32-3.264.896-.832 2.248-1.44 4.056-1.824 1.824-.384 4.16-.576 7.008-.576 1.76 0 3.16.032 4.2.096 1.056.064 1.976.168 2.76.312zm21.463 14.568c.208 0 .368.096.48.288.128.192.192.456.192.792 0 .624-.152 1.12-.456 1.488-.768.928-1.544 1.648-2.328 2.16-.784.496-1.712.744-2.784.744-1.184 0-2.152-.344-2.904-1.032-.752-.704-1.456-1.792-2.112-3.264-.48-1.056-.88-1.84-1.2-2.352-.304-.528-.608-.896-.912-1.104-.304-.224-.688-.36-1.152-.408l-.264 1.776c-.336 2.288-.992 3.936-1.968 4.944-.96 1.008-2.288 1.512-3.984 1.512-1.104 0-2.088-.264-2.952-.792-.848-.544-1.44-1.232-1.776-2.064a2.56 2.56 0 01-.168-.936c0-.48.112-.896.336-1.248.224-.352.512-.528.864-.528.208 0 .384.056.528.168.144.096.28.272.408.528.496.928.928 1.576 1.296 1.944.384.368.856.552 1.416.552.64 0 1.184-.288 1.632-.864.464-.592.792-1.496.984-2.712l.336-2.28h-.384c-.368 0-.656-.104-.864-.312-.208-.208-.312-.496-.312-.864 0-.416.104-.744.312-.984.224-.256.496-.384.816-.384h.792c.112-.784.192-1.328.24-1.632l.744-5.4a10.286 10.286 0 00-1.176-.072c-1.36 0-2.392.24-3.096.72-.704.464-1.056 1.136-1.056 2.016 0 .4.04.728.12.984.096.24.216.512.36.816a.953.953 0 01.096.432c0 .352-.168.664-.504.936-.32.256-.68.384-1.08.384-.512 0-.888-.224-1.128-.672a5.464 5.464 0 01-.72-2.736c0-1.008.272-1.928.816-2.76.56-.832 1.4-1.496 2.52-1.992 1.12-.512 2.504-.768 4.152-.768.72 0 1.376.04 1.968.12.608.08 1.272.232 1.992.456.784.24 1.176.688 1.176 1.344 0 .88-.376 1.32-1.128 1.32l-.936 6.456c1.872-.192 3.392-.992 4.56-2.4 1.184-1.424 2.168-3.352 2.952-5.784.144-.448.384-.792.72-1.032.352-.24.792-.36 1.32-.36.448 0 .792.104 1.032.312.256.192.384.472.384.84 0 .112-.032.296-.096.552-.8 2.64-1.944 4.736-3.432 6.288-1.488 1.552-3.112 2.584-4.872 3.096.608.144 1.104.36 1.488.648.4.288.736.648 1.008 1.08.272.416.584 1 .936 1.752.496 1.056.96 1.808 1.392 2.256.432.432.936.648 1.512.648.512 0 1-.168 1.464-.504.464-.352 1.048-.944 1.752-1.776.192-.224.408-.336.648-.336zm4.764 5.472c-1.104 0-2.104-.272-3-.816-.88-.544-1.576-1.328-2.088-2.352-.512-1.04-.768-2.264-.768-3.672 0-2.432.52-4.68 1.56-6.744 1.04-2.08 2.576-3.744 4.608-4.992 2.032-1.264 4.472-1.896 7.32-1.896.736 0 1.52.056 2.352.168.848.112 1.616.28 2.304.504.448.128.672.448.672.96 0 .416-.16.808-.48 1.176-.304.368-.664.552-1.08.552a1.28 1.28 0 01-.288-.024 24.08 24.08 0 00-2.136-.408 11.69 11.69 0 00-1.872-.144c-2.032 0-3.76.496-5.184 1.488-1.424.976-2.488 2.272-3.192 3.888-.704 1.616-1.056 3.36-1.056 5.232 0 1.36.264 2.416.792 3.168.544.736 1.248 1.104 2.112 1.104.976 0 1.832-.4 2.568-1.2.736-.8 1.408-2.096 2.016-3.888.608-1.792 1.208-4.224 1.8-7.296.096-.448.288-.752.576-.912.288-.16.672-.24 1.152-.24 1.136 0 1.704.368 1.704 1.104 0 .128-.024.288-.072.48a68.566 68.566 0 00-1.152 5.16c-.336 1.872-.504 3.296-.504 4.272 0 .864.128 1.496.384 1.896.256.384.648.576 1.176.576.512 0 1-.168 1.464-.504.464-.352 1.048-.944 1.752-1.776.192-.224.408-.336.648-.336.208 0 .368.096.48.288.128.192.192.456.192.792 0 .624-.152 1.12-.456 1.488-.784.944-1.552 1.664-2.304 2.16-.752.496-1.672.744-2.76.744-1.12 0-2.024-.32-2.712-.96-.688-.656-1.12-1.576-1.296-2.76-1.184 2.48-2.928 3.72-5.232 3.72zM16.197 2.134c-2.127.416-4.08 1.595-4.963 3.027-.67 1.046-1.592 4.367-1.499 5.372.134 1.625 1.686 3.067 3.813 3.545l.562.122v2.092c0 1.147.067 2.6.133 3.22a9.123 9.123 0 002.154 4.874l.522.62-.602 1.767c-1.458 4.245-2.662 6.419-5.244 9.496-2.073 2.488-2.689 3.85-2.81 6.236-.08 1.686.108 2.671.777 4.144 1.257 2.732 3.906 4.956 7.41 6.236.884.315 1.205.386 1.54.335.735-.122 1.11-.945.615-1.361-.12-.102-.71-.366-1.325-.6-3.25-1.218-5.458-3.31-6.475-6.134-.374-1.015-.334-3.534.067-4.58.415-1.107.924-1.9 2.007-3.19 2.609-3.076 4.08-5.626 5.324-9.251.268-.772.509-1.422.535-1.463.04-.04.428.142.897.406 2.314 1.33 4.668 1.92 8.053 2.021 3.625.112 6.22-.315 8.642-1.401 2.127-.955 4.067-2.55 5.123-4.195 1.285-1.99 1.552-3.118 1.552-6.723v-2.55l.575-.131c2.221-.498 3.706-1.89 3.813-3.565.08-1.29-.843-4.52-1.619-5.617-1.485-2.122-5.03-3.3-8.227-2.752-1.11.193-2.448.741-3.545 1.452l-.83.549h-9.176l-.723-.467c-1.819-1.189-3.01-1.575-5.016-1.636-.856-.03-1.525 0-2.06.102zm3.839 1.96c1.498.549 1.498.538.28 1.016-2.166.863-3.771 2.112-4.882 3.829-.695 1.066-1.017 1.848-1.15 2.813-.094.7-.255.741-1.097.274-.629-.335-1.218-1.147-1.218-1.676 0-.579.937-3.829 1.258-4.367.602-.995 2.047-1.889 3.505-2.173.936-.173 2.38-.051 3.304.284zm21.136-.081c.99.284 2.235 1.137 2.703 1.879.388.599 1.27 3.646 1.27 4.377 0 .833-.615 1.585-1.632 1.98l-.494.194-.08-.488c-.295-1.635-1.218-3.382-2.409-4.52-.883-.842-1.618-.974-2.207-.406-.415.407-.334.742.348 1.412.736.71 1.418 1.757 1.752 2.681.214.58.241 1.148.241 4.723 0 3.666-.027 4.133-.254 4.824-.91 2.702-2.956 4.662-6.033 5.79-2.047.75-2.743.852-5.82.852-2.26-.01-2.755-.04-3.678-.233-2.087-.427-3.706-1.158-5.164-2.306-1.418-1.127-2.074-1.97-2.742-3.493l-.375-.864-.053-4.204c-.054-4.713 0-5.058.842-6.399 1.177-1.858 3.238-3.179 5.833-3.737.749-.163 1.458-.183 5.739-.193 2.689-.01 4.95-.02 5.016-.03.08 0 .616-.336 1.204-.732 1.11-.741 1.98-1.138 2.836-1.31.763-.142 2.288-.04 3.157.203z" fill="#5a0057"/><path d="M24.53 12.737c-.253.152-.32.305-.36.853-.054.64-.04.69.347.985.428.325.803.376 1.271.183.495-.193.616-.406.63-1.056 0-.813-.322-1.158-1.071-1.158-.294 0-.629.081-.816.193zm6.863-.122c-.495.153-.735 1.24-.387 1.757.36.549 1.257.64 1.832.203.214-.162.268-.345.268-.893 0-.6-.04-.732-.308-.914-.294-.214-.977-.285-1.405-.153zm-5.31 5.261c-.201.142-.335.366-.335.538 0 .285.134.468 1.23 1.656.51.558.523.579.335.924-.227.416-.816.792-1.244.792-.575 0-1.003.193-1.19.549-.214.396-.16.61.24.944.482.407 1.833.285 2.903-.264l.589-.294.415.243c.776.447 2.14.68 2.809.488.254-.081.602-.559.602-.843 0-.366-.562-.731-1.27-.833-.777-.112-1.232-.406-1.352-.863-.067-.295.027-.447.762-1.25.923-1.025 1.03-1.38.509-1.797-.294-.234-.361-.244-2.488-.244-2.154 0-2.194 0-2.515.254zM39.495 29c-.441.173-.682.559-.588.934.12.457 1.485 3.037 2.087 3.961.695 1.057 1.404 1.97 2.568 3.352 1.431 1.706 1.967 2.793 2.234 4.58.388 2.671-.99 5.546-3.572 7.486-1.03.761-1.872 1.208-3.29 1.756-.643.244-1.231.539-1.311.64-.241.356-.148.721.267 1.046.495.366.776.346 2.087-.121 2.1-.762 4.361-2.235 5.592-3.647 1.953-2.214 2.85-4.864 2.501-7.302a25.507 25.507 0 01-.147-1.168c0-.091.482-.122 1.78-.132 1.39 0 2.006-.05 2.902-.233 1.499-.295 3.331-.975 4.522-1.676.535-.315.963-.528.963-.488 0 .173-.602 1.25-1.15 2.052-1.07 1.584-2.783 2.976-4.91 4.001-.415.204-.83.478-.91.61-.32.518.255 1.178 1.017 1.178.602 0 2.649-1.056 3.933-2.011C58.5 41.5 57.5 42.5 59 40.5c1.5-3 2.64-4.122 2-7 0 0-2 0-3 1.5-1.929 2.893-4.98 3.882-9.14 3.679-.696-.03-1.392-.081-1.539-.122-.16-.04-.441-.335-.695-.741-.241-.366-.923-1.24-1.512-1.94-1.298-1.534-2.689-3.657-3.558-5.413-.536-1.077-.71-1.331-1.017-1.453-.442-.173-.616-.173-1.044-.01zm-19.031 4.923c-.388.284-.415.518-.134 1.625.388 1.513.736 3.88.883 6.084.174 2.386.04 5.18-.348 7.759-.2 1.229-.2 1.402 0 1.97.255.772.562 1.148 1.352 1.707.936.65 1.645.853 2.996.853 1.284 0 2.007-.183 2.85-.752l.494-.325.415.274c.24.142.736.386 1.11.539.937.365 2.622.386 3.612.04 1.044-.365 1.766-.873 2.208-1.574.575-.873.615-1.32.334-3.128-.2-1.26-.254-2.275-.254-5.22 0-3.83.12-4.987.75-7.77.374-1.595.36-1.818-.081-2.102-.642-.427-1.525-.234-1.793.406-.187.447-.628 2.468-.91 4.235-.347 2.163-.347 8.206.014 10.583l.254 1.686-.294.467c-.723 1.127-2.73 1.28-3.732.284l-.362-.355-.067-8.49c-.066-8.796-.066-8.826-.615-8.989-.468-.132-1.084-.06-1.364.173l-.295.233v8.227c0 5.677-.053 8.338-.147 8.623-.2.528-.99 1.127-1.632 1.218-.79.112-1.431-.03-1.98-.447-.709-.538-.816-.914-.588-2.275.107-.63.267-2.173.36-3.443.228-3.382-.093-7.282-.922-10.846-.188-.782-.295-1.016-.589-1.25-.468-.355-1.084-.365-1.525-.02z" fill="#5a0057"/></svg>